<?xml version="1.0" encoding="UTF-8"?>
<svg xmlns="http://www.w3.org/2000/svg" width="1920" height="1080" viewBox="0 0 1920 1080">
  <defs>
    <pattern id="lightDots" width="34" height="34" patternUnits="userSpaceOnUse">
      <circle cx="3" cy="3" r="1.7" fill="#C4C6C1" opacity="0.55"/>
    </pattern>
    <filter id="paperShadow" x="-18%" y="-18%" width="136%" height="150%">
      <feDropShadow dx="0" dy="12" stdDeviation="14" flood-color="#4B5563" flood-opacity="0.13"/>
    </filter>
    <marker id="arrowBlue" markerWidth="12" markerHeight="12" refX="9" refY="6" orient="auto" markerUnits="strokeWidth">
      <path d="M2 2 L10 6 L2 10" fill="none" stroke="#106BEF" stroke-width="2"/>
    </marker>
    <marker id="arrowGray" markerWidth="12" markerHeight="12" refX="9" refY="6" orient="auto" markerUnits="strokeWidth">
      <path d="M2 2 L10 6 L2 10" fill="none" stroke="#A5A9AE" stroke-width="2"/>
    </marker>
  </defs>
  <rect width="1920" height="1080" fill="#FBFAF7"/>

    <path d="M1816 92 h-70 q-28 0 -28 28 v78" stroke="#D7D7D2" stroke-width="2" fill="none" opacity="0.34"/>
    <path d="M1782 890 v-190 q0 -32 32 -32 h50" stroke="#D7D7D2" stroke-width="2" fill="none"/>
    <path d="M1650 820 h112 q30 0 30 -30 v-80" stroke="#D7D7D2" stroke-width="2" fill="none"/>
    <circle cx="1800" cy="708" r="7" fill="#FFFFFF" stroke="#C4C6C1" stroke-width="2"/>
    <circle cx="1762" cy="820" r="7" fill="#106BEF"/>
    <circle cx="1848" cy="622" r="6" fill="#FF5A1F"/>
    <rect x="1378" y="720" width="180" height="120" fill="url(#lightDots)" opacity="0.48"/>
    <rect x="152" y="318" width="128" height="96" fill="url(#lightDots)" opacity="0.42"/>
    <path d="M70 740 h120 v118 h250" stroke="#D7D7D2" stroke-width="2" fill="none"/>
    <path d="M50 510 h116 q26 0 26 26 v52" stroke="#D7D7D2" stroke-width="2" fill="none"/>
    <circle cx="150" cy="857" r="5" fill="#FF5A1F"/>

    <g opacity="0.26" transform="translate(1350 820) scale(0.72)">
      <path d="M0 120 L110 60 L220 120 L110 180 Z" fill="none" stroke="#C4C6C1" stroke-width="2"/>
      <path d="M110 60 V180 M0 120 V220 M220 120 V220 M0 220 H320" stroke="#C4C6C1" stroke-width="2" fill="none"/>
      <path d="M260 50 h70 v170 h-70 Z M280 80 h30 M280 116 h30 M280 152 h30" stroke="#C4C6C1" stroke-width="2" fill="none"/>
      <path d="M360 96 h90 v124 h-90 Z M382 122 h46 M382 154 h46 M382 186 h46" stroke="#C4C6C1" stroke-width="2" fill="none"/>
      <path d="M88 144 h42 v76 h-42 Z M150 126 h48 v94 h-48 Z" stroke="#C4C6C1" stroke-width="2" fill="none"/>
    </g>



    <g transform="rotate(-2 1508 104)">
      <text x="1268" y="58"
        style="font-family:'Arial Black','Microsoft YaHei','Noto Sans SC',sans-serif;font-size:88px;font-weight:900;letter-spacing:1.4px;fill:#106BEF;fill-opacity:0.15;stroke:#106BEF;stroke-width:1.4;stroke-opacity:0.2;paint-order:stroke">04</text>
      <text x="1370" y="92"
        style="font-family:'Microsoft YaHei','Noto Sans SC','Segoe UI',sans-serif;font-size:38px;font-weight:900;letter-spacing:1.6px;fill:#106BEF;stroke:#FFFFFF;stroke-width:2.4;paint-order:stroke;fill-opacity:0.48">能力演进</text>
      <path d="M1368 150 C1488 118 1628 174 1768 134" stroke="#106BEF" stroke-width="5" stroke-linecap="round" fill="none" opacity="0.24"/>
    </g>


    <style>
      text { font-family: "Microsoft YaHei", "Noto Sans SC", "PingFang SC", "Segoe UI", Arial, sans-serif; dominant-baseline: hanging; }
      .brand5 { font-size: 42px; font-weight: 900; fill: #050608; }
      .num5 { font-family: "Arial", "Microsoft YaHei", sans-serif; font-weight: 900; fill: #050608; }
      .h15 { font-size: 68px; font-weight: 900; fill: #050608; letter-spacing: 0; }
      .h25 { font-size: 58px; font-weight: 900; fill: #050608; letter-spacing: 0; }
      .sub5 { font-size: 31px; font-weight: 560; fill: #5F6670; }
      .body5 { font-size: 30px; font-weight: 700; fill: #050608; }
      .muted5 { font-size: 24px; font-weight: 560; fill: #5F6670; }
      .label5 { font-size: 29px; font-weight: 900; fill: #050608; }
      .small5 { font-size: 23px; font-weight: 760; fill: #5F6670; }
      .micro5 { font-size: 19px; font-weight: 760; fill: #5F6670; }
    </style>
    <text x="42" y="46" class="brand5">BitFun</text>
    <text x="1840" y="50" class="small5" text-anchor="end">09 / 12</text>



    <text x="96" y="146" class="h15" style="font-size:58px">工程质量：把质量落到三条可复核链路</text>
    <text x="100" y="244" class="sub5">开源和大厂场景不同，但都要回答责任、证据和工件是否可追踪。</text>
    <path d="M96 318 h112" stroke="#106BEF" stroke-width="8" stroke-linecap="round"/>
    <circle cx="230" cy="318" r="5.5" fill="#FF5A1F"/>


    <rect x="110" y="430" width="520" height="310" rx="22" fill="#FFFFFF" stroke="#C4C6C1" stroke-width="2.2" filter="url(#paperShadow)"/>
    <circle cx="174" cy="492" r="38" fill="#106BEF" opacity="0.10"/>
    <g transform="translate(148 466) scale(0.8125)"><circle cx="32" cy="22" r="8" stroke="#106BEF" stroke-width="3.6923076923076925" stroke-linecap="round" stroke-linejoin="round" fill="none"/><circle cx="18" cy="30" r="6" stroke="#106BEF" stroke-width="3.6923076923076925" stroke-linecap="round" stroke-linejoin="round" fill="none"/><circle cx="46" cy="30" r="6" stroke="#106BEF" stroke-width="3.6923076923076925" stroke-linecap="round" stroke-linejoin="round" fill="none"/><path d="M14 50 q18 -16 36 0 M4 54 q14 -12 28 -5 M32 49 q14 -7 28 5" stroke="#106BEF" stroke-width="3.6923076923076925" stroke-linecap="round" stroke-linejoin="round" fill="none"/></g>
    <text x="232" y="468" class="small5" style="font-size:23px;fill:#106BEF;font-weight:900">开源高质量要求</text>
    <text x="164" y="542" class="num5" style="font-size:34px;fill:#050608">提升对提交质量的信任</text>
    <path d="M164 580 H576" stroke="#106BEF" stroke-width="4" stroke-linecap="round" opacity="0.66"/>

      <circle cx="166" cy="616" r="6.5" fill="#106BEF"/>
      <text x="188" y="604" class="small5" style="font-size:24px;fill:#5F6670;font-weight:850">贡献者对代码负责</text>

      <circle cx="166" cy="658" r="6.5" fill="#106BEF"/>
      <text x="188" y="646" class="small5" style="font-size:24px;fill:#5F6670;font-weight:850">维护者看方向、可读性、测试</text>

      <circle cx="166" cy="700" r="6.5" fill="#106BEF"/>
      <text x="188" y="688" class="small5" style="font-size:24px;fill:#5F6670;font-weight:850">小批量变更 + 可复核证据</text>




    <rect x="700" y="430" width="520" height="310" rx="22" fill="#FFFFFF" stroke="#C4C6C1" stroke-width="2.2" filter="url(#paperShadow)"/>
    <circle cx="764" cy="492" r="38" fill="#106BEF" opacity="0.10"/>
    <g transform="translate(738 466) scale(0.8125)"><rect x="12" y="10" width="40" height="44" rx="4" stroke="#106BEF" stroke-width="3.6923076923076925" stroke-linecap="round" stroke-linejoin="round" fill="none"/><path d="M22 32 l8 8 l14 -18" stroke="#106BEF" stroke-width="3.6923076923076925" stroke-linecap="round" stroke-linejoin="round" fill="none"/></g>
    <text x="822" y="468" class="small5" style="font-size:23px;fill:#106BEF;font-weight:900">共同检查面</text>
    <text x="754" y="542" class="num5" style="font-size:34px;fill:#050608">三条链同时可复核</text>
    <path d="M754 580 H1166" stroke="#106BEF" stroke-width="4" stroke-linecap="round" opacity="0.66"/>

      <circle cx="756" cy="616" r="6.5" fill="#106BEF"/>
      <text x="778" y="604" class="small5" style="font-size:24px;fill:#5F6670;font-weight:850">责任链：谁决策 / 审核 / 承担</text>

      <circle cx="756" cy="658" r="6.5" fill="#106BEF"/>
      <text x="778" y="646" class="small5" style="font-size:24px;fill:#5F6670;font-weight:850">证据链：测试 / 轨迹 / 回滚</text>

      <circle cx="756" cy="700" r="6.5" fill="#106BEF"/>
      <text x="778" y="688" class="small5" style="font-size:24px;fill:#5F6670;font-weight:850">工件链：代码 / 配置 / 发布物</text>




    <rect x="1290" y="430" width="520" height="310" rx="22" fill="#FFFFFF" stroke="#C4C6C1" stroke-width="2.2" filter="url(#paperShadow)"/>
    <circle cx="1354" cy="492" r="38" fill="#FF5A1F" opacity="0.10"/>
    <g transform="translate(1328 466) scale(0.8125)"><rect x="10" y="10" width="18" height="18" stroke="#FF5A1F" stroke-width="3.6923076923076925" stroke-linecap="round" stroke-linejoin="round" fill="none"/><rect x="36" y="10" width="18" height="18" stroke="#FF5A1F" stroke-width="3.6923076923076925" stroke-linecap="round" stroke-linejoin="round" fill="none"/><rect x="10" y="36" width="18" height="18" stroke="#FF5A1F" stroke-width="3.6923076923076925" stroke-linecap="round" stroke-linejoin="round" fill="none"/><path d="M41 36 l14 9 l-14 9 l-14 -9 Z" stroke="#FF5A1F" stroke-width="3.6923076923076925" stroke-linecap="round" stroke-linejoin="round" fill="none"/></g>
    <text x="1412" y="468" class="small5" style="font-size:23px;fill:#FF5A1F;font-weight:900">大厂复杂交付</text>
    <text x="1344" y="542" class="num5" style="font-size:34px;fill:#050608">稳定工件贯穿系统</text>
    <path d="M1344 580 H1756" stroke="#FF5A1F" stroke-width="4" stroke-linecap="round" opacity="0.66"/>

      <circle cx="1346" cy="616" r="6.5" fill="#FF5A1F"/>
      <text x="1368" y="604" class="small5" style="font-size:24px;fill:#5F6670;font-weight:850">需求 / 设计 / 接口 / 稳定性目标</text>

      <circle cx="1346" cy="658" r="6.5" fill="#FF5A1F"/>
      <text x="1368" y="646" class="small5" style="font-size:24px;fill:#5F6670;font-weight:850">证据贯穿计划、发布与复盘</text>

      <circle cx="1346" cy="700" r="6.5" fill="#FF5A1F"/>
      <text x="1368" y="688" class="small5" style="font-size:24px;fill:#5F6670;font-weight:850">责任人、回滚、合规可追踪</text>




    <rect x="170" y="954" width="1580" height="64" rx="10" fill="#FFFFFF" stroke="#C4C6C1" stroke-width="2"/>
    <path d="M240 971 v30" stroke="#106BEF" stroke-width="8" stroke-linecap="round"/>
    <text x="986" y="984" class="body5" text-anchor="middle" dominant-baseline="middle" alignment-baseline="middle" style="font-size:27px">开源和大厂的差异在场景；共同点是责任清楚、证据完整、工件可追踪。</text>


</svg>