<?xml version="1.0" encoding="UTF-8"?>
<svg xmlns="http://www.w3.org/2000/svg" width="1920" height="1080" viewBox="0 0 1920 1080">
  <defs>
    <pattern id="lightDots" width="34" height="34" patternUnits="userSpaceOnUse">
      <circle cx="3" cy="3" r="1.7" fill="#C4C6C1" opacity="0.55"/>
    </pattern>
    <filter id="paperShadow" x="-18%" y="-18%" width="136%" height="150%">
      <feDropShadow dx="0" dy="12" stdDeviation="14" flood-color="#4B5563" flood-opacity="0.13"/>
    </filter>
    <marker id="arrowBlue" markerWidth="12" markerHeight="12" refX="9" refY="6" orient="auto" markerUnits="strokeWidth">
      <path d="M2 2 L10 6 L2 10" fill="none" stroke="#106BEF" stroke-width="2"/>
    </marker>
    <marker id="arrowGray" markerWidth="12" markerHeight="12" refX="9" refY="6" orient="auto" markerUnits="strokeWidth">
      <path d="M2 2 L10 6 L2 10" fill="none" stroke="#A5A9AE" stroke-width="2"/>
    </marker>
  </defs>
  <rect width="1920" height="1080" fill="#FBFAF7"/>

    <path d="M1816 92 h-70 q-28 0 -28 28 v78" stroke="#D7D7D2" stroke-width="2" fill="none" opacity="0.34"/>
    <path d="M1782 890 v-190 q0 -32 32 -32 h50" stroke="#D7D7D2" stroke-width="2" fill="none"/>
    <path d="M1650 820 h112 q30 0 30 -30 v-80" stroke="#D7D7D2" stroke-width="2" fill="none"/>
    <circle cx="1800" cy="708" r="7" fill="#FFFFFF" stroke="#C4C6C1" stroke-width="2"/>
    <circle cx="1762" cy="820" r="7" fill="#106BEF"/>
    <circle cx="1848" cy="622" r="6" fill="#FF5A1F"/>
    <rect x="1378" y="720" width="180" height="120" fill="url(#lightDots)" opacity="0.48"/>
    <rect x="152" y="318" width="128" height="96" fill="url(#lightDots)" opacity="0.42"/>
    <path d="M70 740 h120 v118 h250" stroke="#D7D7D2" stroke-width="2" fill="none"/>
    <path d="M50 510 h116 q26 0 26 26 v52" stroke="#D7D7D2" stroke-width="2" fill="none"/>
    <circle cx="150" cy="857" r="5" fill="#FF5A1F"/>

    <g opacity="0.26" transform="translate(1350 820) scale(0.72)">
      <path d="M0 120 L110 60 L220 120 L110 180 Z" fill="none" stroke="#C4C6C1" stroke-width="2"/>
      <path d="M110 60 V180 M0 120 V220 M220 120 V220 M0 220 H320" stroke="#C4C6C1" stroke-width="2" fill="none"/>
      <path d="M260 50 h70 v170 h-70 Z M280 80 h30 M280 116 h30 M280 152 h30" stroke="#C4C6C1" stroke-width="2" fill="none"/>
      <path d="M360 96 h90 v124 h-90 Z M382 122 h46 M382 154 h46 M382 186 h46" stroke="#C4C6C1" stroke-width="2" fill="none"/>
      <path d="M88 144 h42 v76 h-42 Z M150 126 h48 v94 h-48 Z" stroke="#C4C6C1" stroke-width="2" fill="none"/>
    </g>



    <g transform="rotate(-2 1508 104)">
      <text x="1268" y="58"
        style="font-family:'Arial Black','Microsoft YaHei','Noto Sans SC',sans-serif;font-size:88px;font-weight:900;letter-spacing:1.4px;fill:#106BEF;fill-opacity:0.15;stroke:#106BEF;stroke-width:1.4;stroke-opacity:0.2;paint-order:stroke">03</text>
      <text x="1370" y="92"
        style="font-family:'Microsoft YaHei','Noto Sans SC','Segoe UI',sans-serif;font-size:38px;font-weight:900;letter-spacing:1.6px;fill:#106BEF;stroke:#FFFFFF;stroke-width:2.4;paint-order:stroke;fill-opacity:0.48">工程治理</text>
      <path d="M1368 150 C1488 118 1628 174 1768 134" stroke="#106BEF" stroke-width="5" stroke-linecap="round" fill="none" opacity="0.24"/>
    </g>


    <style>
      text { font-family: "Microsoft YaHei", "Noto Sans SC", "PingFang SC", "Segoe UI", Arial, sans-serif; dominant-baseline: hanging; }
      .brand5 { font-size: 42px; font-weight: 900; fill: #050608; }
      .num5 { font-family: "Arial", "Microsoft YaHei", sans-serif; font-weight: 900; fill: #050608; }
      .h15 { font-size: 68px; font-weight: 900; fill: #050608; letter-spacing: 0; }
      .h25 { font-size: 58px; font-weight: 900; fill: #050608; letter-spacing: 0; }
      .sub5 { font-size: 31px; font-weight: 560; fill: #5F6670; }
      .body5 { font-size: 30px; font-weight: 700; fill: #050608; }
      .muted5 { font-size: 24px; font-weight: 560; fill: #5F6670; }
      .label5 { font-size: 29px; font-weight: 900; fill: #050608; }
      .small5 { font-size: 23px; font-weight: 760; fill: #5F6670; }
      .micro5 { font-size: 19px; font-weight: 760; fill: #5F6670; }
    </style>
    <text x="42" y="46" class="brand5">BitFun</text>
    <text x="1840" y="50" class="small5" text-anchor="end">08 / 12</text>



    <text x="96" y="146" class="h15" style="font-size:58px">速度变成效率：先让变更可判断</text>
    <text x="100" y="244" class="sub5">AI 加快提交进入评审；判断上下文减少猜测、等待与返工，最终看端到端效率。</text>
    <path d="M96 318 h112" stroke="#106BEF" stroke-width="8" stroke-linecap="round"/>
    <circle cx="230" cy="318" r="5.5" fill="#FF5A1F"/>

    <text x="128" y="360" class="small5" style="font-size:23px;fill:#106BEF;font-weight:900">先把“可审查性”做实，再衡量端到端效率。</text>


    <rect x="110" y="420" width="440" height="360" rx="20" fill="#FFFFFF" stroke="#C4C6C1" stroke-width="2" filter="url(#paperShadow)"/>
    <circle cx="186" cy="494" r="42" fill="#106BEF" opacity="0.10"/>
    <g transform="translate(160 468) scale(0.8125)"><rect x="10" y="10" width="18" height="18" stroke="#106BEF" stroke-width="3.6923076923076925" stroke-linecap="round" stroke-linejoin="round" fill="none"/><rect x="36" y="10" width="18" height="18" stroke="#106BEF" stroke-width="3.6923076923076925" stroke-linecap="round" stroke-linejoin="round" fill="none"/><rect x="10" y="36" width="18" height="18" stroke="#106BEF" stroke-width="3.6923076923076925" stroke-linecap="round" stroke-linejoin="round" fill="none"/><path d="M41 36 l14 9 l-14 9 l-14 -9 Z" stroke="#106BEF" stroke-width="3.6923076923076925" stroke-linecap="round" stroke-linejoin="round" fill="none"/></g>
    <text x="252" y="464" class="small5" style="font-size:24px;fill:#106BEF;font-weight:900">01 / 局部速度</text>
    <text x="164" y="552" class="num5" style="font-size:34px;fill:#050608">更快进入评审</text>
    <path d="M164 604 H496" stroke="#106BEF" stroke-width="4" stroke-linecap="round" opacity="0.58"/>

    <circle cx="166" cy="658" r="7" fill="#106BEF" opacity="0.86"/>
    <text x="194" y="646" class="small5" style="font-size:25px;fill:#050608;font-weight:860">想法到原型更短</text>


    <circle cx="166" cy="706" r="7" fill="#106BEF" opacity="0.86"/>
    <text x="194" y="694" class="small5" style="font-size:25px;fill:#050608;font-weight:860">代码生成更快</text>


    <circle cx="166" cy="754" r="7" fill="#106BEF" opacity="0.86"/>
    <text x="194" y="742" class="small5" style="font-size:25px;fill:#050608;font-weight:860">提交反馈更早</text>


    <path d="M570 596 H622" stroke="#C4C6C1" stroke-width="5" fill="none" marker-end="url(#arrowGray)" opacity="0.86"/>

    <rect x="650" y="420" width="628" height="360" rx="20" fill="#FFFFFF" stroke="#C4C6C1" stroke-width="2" filter="url(#paperShadow)"/>
    <circle cx="722" cy="494" r="42" fill="#106BEF" opacity="0.10"/>
    <g transform="translate(696 468) scale(0.8125)"><path d="M18 8 h22 l10 10 v38 H18 Z M40 8 v12 h12 M26 32 h20 M26 42 h18" stroke="#106BEF" stroke-width="3.6923076923076925" stroke-linecap="round" stroke-linejoin="round" fill="none"/></g>
    <text x="788" y="464" class="small5" style="font-size:24px;fill:#106BEF;font-weight:900">02 / 变更判断上下文</text>
    <text x="704" y="552" class="num5" style="font-size:34px;fill:#050608">减少评审猜测</text>
    <path d="M704 604 H1224" stroke="#106BEF" stroke-width="4" stroke-linecap="round" opacity="0.58"/>

    <circle cx="708" cy="644" r="6.5" fill="#106BEF" opacity="0.86"/>
    <text x="734" y="632" class="small5" style="font-size:23px;fill:#050608;font-weight:900">为什么改</text>
    <text x="896" y="633" class="small5" style="font-size:21px;fill:#5F6670;font-weight:800">目标 / 非目标 / 验收</text>


    <circle cx="708" cy="684" r="6.5" fill="#106BEF" opacity="0.86"/>
    <text x="734" y="672" class="small5" style="font-size:23px;fill:#050608;font-weight:900">改了什么</text>
    <text x="896" y="673" class="small5" style="font-size:21px;fill:#5F6670;font-weight:800">影响路径 / 责任依赖</text>


    <circle cx="708" cy="724" r="6.5" fill="#106BEF" opacity="0.86"/>
    <text x="734" y="712" class="small5" style="font-size:23px;fill:#050608;font-weight:900">怎么验证</text>
    <text x="896" y="713" class="small5" style="font-size:21px;fill:#5F6670;font-weight:800">测试结果 / 执行轨迹</text>


    <circle cx="708" cy="764" r="6.5" fill="#106BEF" opacity="0.86"/>
    <text x="734" y="752" class="small5" style="font-size:23px;fill:#050608;font-weight:900">风险如何退</text>
    <text x="896" y="753" class="small5" style="font-size:21px;fill:#5F6670;font-weight:800">风险标记 / 回滚路径</text>


    <path d="M1298 596 H1350" stroke="#C4C6C1" stroke-width="5" fill="none" marker-end="url(#arrowGray)" opacity="0.86"/>

    <rect x="1378" y="420" width="430" height="360" rx="20" fill="#FFFFFF" stroke="#C4C6C1" stroke-width="2" filter="url(#paperShadow)"/>
    <circle cx="1454" cy="494" r="42" fill="#106BEF" opacity="0.10"/>
    <g transform="translate(1428 468) scale(0.8125)"><path d="M48 18 A22 22 0 0 0 14 24 M14 24 h12 M14 24 v-12 M16 46 A22 22 0 0 0 50 40 M50 40 H38 M50 40 v12" stroke="#106BEF" stroke-width="3.6923076923076925" stroke-linecap="round" stroke-linejoin="round" fill="none"/><path d="M24 34 l7 7 l13 -17" stroke="#106BEF" stroke-width="3.6923076923076925" stroke-linecap="round" stroke-linejoin="round" fill="none"/></g>
    <text x="1520" y="464" class="small5" style="font-size:24px;fill:#106BEF;font-weight:900">03 / 整体效率</text>
    <text x="1432" y="552" class="num5" style="font-size:34px;fill:#050608">端到端周期缩短</text>
    <path d="M1432 604 H1754" stroke="#106BEF" stroke-width="4" stroke-linecap="round" opacity="0.58"/>

    <circle cx="1434" cy="658" r="7" fill="#106BEF" opacity="0.86"/>
    <text x="1462" y="646" class="small5" style="font-size:25px;fill:#050608;font-weight:860">评审等待下降</text>


    <circle cx="1434" cy="706" r="7" fill="#106BEF" opacity="0.86"/>
    <text x="1462" y="694" class="small5" style="font-size:25px;fill:#050608;font-weight:860">返工闭环变短</text>


    <circle cx="1434" cy="754" r="7" fill="#106BEF" opacity="0.86"/>
    <text x="1462" y="742" class="small5" style="font-size:25px;fill:#050608;font-weight:860">构建与恢复更稳</text>




    <rect x="170" y="954" width="1580" height="64" rx="10" fill="#FFFFFF" stroke="#C4C6C1" stroke-width="2"/>
    <path d="M240 971 v30" stroke="#106BEF" stroke-width="8" stroke-linecap="round"/>
    <text x="986" y="984" class="body5" text-anchor="middle" dominant-baseline="middle" alignment-baseline="middle" style="font-size:27px">代码写得快是入口；判断依据清楚、评审等待下降、返工闭环变短，才是交付变快。</text>


</svg>