<?xml version="1.0" encoding="UTF-8"?>
<svg xmlns="http://www.w3.org/2000/svg" width="1920" height="1080" viewBox="0 0 1920 1080">
  <defs>
    <pattern id="lightDots" width="34" height="34" patternUnits="userSpaceOnUse">
      <circle cx="3" cy="3" r="1.7" fill="#C4C6C1" opacity="0.55"/>
    </pattern>
    <filter id="paperShadow" x="-18%" y="-18%" width="136%" height="150%">
      <feDropShadow dx="0" dy="12" stdDeviation="14" flood-color="#4B5563" flood-opacity="0.13"/>
    </filter>
    <marker id="arrowBlue" markerWidth="12" markerHeight="12" refX="9" refY="6" orient="auto" markerUnits="strokeWidth">
      <path d="M2 2 L10 6 L2 10" fill="none" stroke="#106BEF" stroke-width="2"/>
    </marker>
    <marker id="arrowGray" markerWidth="12" markerHeight="12" refX="9" refY="6" orient="auto" markerUnits="strokeWidth">
      <path d="M2 2 L10 6 L2 10" fill="none" stroke="#A5A9AE" stroke-width="2"/>
    </marker>
  </defs>
  <rect width="1920" height="1080" fill="#FBFAF7"/>

    <path d="M1816 92 h-70 q-28 0 -28 28 v78" stroke="#D7D7D2" stroke-width="2" fill="none" opacity="0.34"/>
    <path d="M1782 890 v-190 q0 -32 32 -32 h50" stroke="#D7D7D2" stroke-width="2" fill="none"/>
    <path d="M1650 820 h112 q30 0 30 -30 v-80" stroke="#D7D7D2" stroke-width="2" fill="none"/>
    <circle cx="1800" cy="708" r="7" fill="#FFFFFF" stroke="#C4C6C1" stroke-width="2"/>
    <circle cx="1762" cy="820" r="7" fill="#106BEF"/>
    <circle cx="1848" cy="622" r="6" fill="#FF5A1F"/>
    <rect x="1378" y="720" width="180" height="120" fill="url(#lightDots)" opacity="0.48"/>
    <rect x="152" y="318" width="128" height="96" fill="url(#lightDots)" opacity="0.42"/>
    <path d="M70 740 h120 v118 h250" stroke="#D7D7D2" stroke-width="2" fill="none"/>
    <path d="M50 510 h116 q26 0 26 26 v52" stroke="#D7D7D2" stroke-width="2" fill="none"/>
    <circle cx="150" cy="857" r="5" fill="#FF5A1F"/>

    <g opacity="0.26" transform="translate(1350 820) scale(0.72)">
      <path d="M0 120 L110 60 L220 120 L110 180 Z" fill="none" stroke="#C4C6C1" stroke-width="2"/>
      <path d="M110 60 V180 M0 120 V220 M220 120 V220 M0 220 H320" stroke="#C4C6C1" stroke-width="2" fill="none"/>
      <path d="M260 50 h70 v170 h-70 Z M280 80 h30 M280 116 h30 M280 152 h30" stroke="#C4C6C1" stroke-width="2" fill="none"/>
      <path d="M360 96 h90 v124 h-90 Z M382 122 h46 M382 154 h46 M382 186 h46" stroke="#C4C6C1" stroke-width="2" fill="none"/>
      <path d="M88 144 h42 v76 h-42 Z M150 126 h48 v94 h-48 Z" stroke="#C4C6C1" stroke-width="2" fill="none"/>
    </g>



    <g transform="rotate(-2 1508 104)">
      <text x="1268" y="58"
        style="font-family:'Arial Black','Microsoft YaHei','Noto Sans SC',sans-serif;font-size:88px;font-weight:900;letter-spacing:1.4px;fill:#106BEF;fill-opacity:0.15;stroke:#106BEF;stroke-width:1.4;stroke-opacity:0.2;paint-order:stroke">03</text>
      <text x="1370" y="92"
        style="font-family:'Microsoft YaHei','Noto Sans SC','Segoe UI',sans-serif;font-size:38px;font-weight:900;letter-spacing:1.6px;fill:#106BEF;stroke:#FFFFFF;stroke-width:2.4;paint-order:stroke;fill-opacity:0.48">工程治理</text>
      <path d="M1368 150 C1488 118 1628 174 1768 134" stroke="#106BEF" stroke-width="5" stroke-linecap="round" fill="none" opacity="0.24"/>
    </g>


    <style>
      text { font-family: "Microsoft YaHei", "Noto Sans SC", "PingFang SC", "Segoe UI", Arial, sans-serif; dominant-baseline: hanging; }
      .brand5 { font-size: 42px; font-weight: 900; fill: #050608; }
      .num5 { font-family: "Arial", "Microsoft YaHei", sans-serif; font-weight: 900; fill: #050608; }
      .h15 { font-size: 68px; font-weight: 900; fill: #050608; letter-spacing: 0; }
      .h25 { font-size: 58px; font-weight: 900; fill: #050608; letter-spacing: 0; }
      .sub5 { font-size: 31px; font-weight: 560; fill: #5F6670; }
      .body5 { font-size: 30px; font-weight: 700; fill: #050608; }
      .muted5 { font-size: 24px; font-weight: 560; fill: #5F6670; }
      .label5 { font-size: 29px; font-weight: 900; fill: #050608; }
      .small5 { font-size: 23px; font-weight: 760; fill: #5F6670; }
      .micro5 { font-size: 19px; font-weight: 760; fill: #5F6670; }
    </style>
    <text x="42" y="46" class="brand5">BitFun</text>
    <text x="1840" y="50" class="small5" text-anchor="end">06 / 12</text>



    <text x="96" y="146" class="h15" style="font-size:64px">BitFun：把 AI 执行放进工程控制面</text>
    <text x="100" y="244" class="sub5">规则上下文、工具准入、权限隔离和验证矩阵，共同保护 AI 交付能力。</text>
    <path d="M96 318 h112" stroke="#106BEF" stroke-width="8" stroke-linecap="round"/>
    <circle cx="230" cy="318" r="5.5" fill="#FF5A1F"/>

    <text x="142" y="366" class="small5" style="font-size:24px;fill:#5F6670;font-weight:820">模型生成的是可能性；BitFun 的控制面负责把可能性放进可读取、可拦截、可复核的工程轨道。</text>
    <rect x="120" y="424" width="1680" height="360" rx="20" fill="#FFFFFF" stroke="#C4C6C1" stroke-width="2" filter="url(#paperShadow)"/>
    <path d="M540 462 V750 M960 462 V750 M1380 462 V750" stroke="#C4C6C1" stroke-width="2"/>

    <g>
      <circle cx="198" cy="518" r="38" fill="#106BEF" opacity="0.11"/>
      <g transform="translate(174 494) scale(0.75)"><path d="M18 8 h22 l10 10 v38 H18 Z M40 8 v12 h12 M26 32 h20 M26 42 h18" stroke="#106BEF" stroke-width="4" stroke-linecap="round" stroke-linejoin="round" fill="none"/></g>
      <text x="254" y="484" class="num5" style="font-size:34px;fill:#106BEF">01</text>
      <text x="254" y="530" class="label5" style="font-size:30px">规则上下文</text>
      <text x="160" y="600" class="small5" style="font-size:22px;fill:#106BEF;font-weight:900">先明确边界</text>
      <path d="M160 634 H490" stroke="#106BEF" stroke-width="3.2" stroke-linecap="round" opacity="0.65"/>

      <circle cx="178" cy="668" r="5.5" fill="#106BEF" opacity="0.80"/>
      <text x="198" y="656" class="small5" style="font-size:22px;fill:#050608;font-weight:800">仓库 / 模块规则文件</text>

      <circle cx="178" cy="714" r="5.5" fill="#106BEF" opacity="0.80"/>
      <text x="198" y="702" class="small5" style="font-size:22px;fill:#050608;font-weight:800">架构、日志、远程规则</text>

      <circle cx="178" cy="760" r="5.5" fill="#106BEF" opacity="0.80"/>
      <text x="198" y="748" class="small5" style="font-size:22px;fill:#050608;font-weight:800">先有事实，再有生成</text>

    </g>


    <g>
      <circle cx="618" cy="518" r="38" fill="#FF5A1F" opacity="0.11"/>
      <g transform="translate(594 494) scale(0.75)"><rect x="10" y="10" width="18" height="18" stroke="#FF5A1F" stroke-width="4" stroke-linecap="round" stroke-linejoin="round" fill="none"/><rect x="36" y="10" width="18" height="18" stroke="#FF5A1F" stroke-width="4" stroke-linecap="round" stroke-linejoin="round" fill="none"/><rect x="10" y="36" width="18" height="18" stroke="#FF5A1F" stroke-width="4" stroke-linecap="round" stroke-linejoin="round" fill="none"/><path d="M41 36 l14 9 l-14 9 l-14 -9 Z" stroke="#FF5A1F" stroke-width="4" stroke-linecap="round" stroke-linejoin="round" fill="none"/></g>
      <text x="674" y="484" class="num5" style="font-size:34px;fill:#FF5A1F">02</text>
      <text x="674" y="530" class="label5" style="font-size:30px">工具准入</text>
      <text x="580" y="600" class="small5" style="font-size:22px;fill:#FF5A1F;font-weight:900">工具不是无限开放</text>
      <path d="M580 634 H910" stroke="#FF5A1F" stroke-width="3.2" stroke-linecap="round" opacity="0.65"/>

      <circle cx="598" cy="668" r="5.5" fill="#FF5A1F" opacity="0.80"/>
      <text x="618" y="656" class="small5" style="font-size:22px;fill:#050608;font-weight:800">可用工具白名单</text>

      <circle cx="598" cy="714" r="5.5" fill="#FF5A1F" opacity="0.80"/>
      <text x="618" y="702" class="small5" style="font-size:22px;fill:#050608;font-weight:800">运行时限制</text>

      <circle cx="598" cy="760" r="5.5" fill="#FF5A1F" opacity="0.80"/>
      <text x="618" y="748" class="small5" style="font-size:22px;fill:#050608;font-weight:800">先读工具规格</text>

    </g>


    <g>
      <circle cx="1038" cy="518" r="38" fill="#106BEF" opacity="0.11"/>
      <g transform="translate(1014 494) scale(0.75)"><path d="M32 6 L52 14 V30 q0 18 -20 28 Q12 48 12 30 V14 Z M22 32 l7 7 l15 -18" stroke="#106BEF" stroke-width="4" stroke-linecap="round" stroke-linejoin="round" fill="none"/></g>
      <text x="1094" y="484" class="num5" style="font-size:34px;fill:#106BEF">03</text>
      <text x="1094" y="530" class="label5" style="font-size:30px">权限隔离</text>
      <text x="1000" y="600" class="small5" style="font-size:22px;fill:#106BEF;font-weight:900">影响面必须可控</text>
      <path d="M1000 634 H1330" stroke="#106BEF" stroke-width="3.2" stroke-linecap="round" opacity="0.65"/>

      <circle cx="1018" cy="668" r="5.5" fill="#106BEF" opacity="0.80"/>
      <text x="1038" y="656" class="small5" style="font-size:22px;fill:#050608;font-weight:800">产物不越过根目录</text>

      <circle cx="1018" cy="714" r="5.5" fill="#106BEF" opacity="0.80"/>
      <text x="1038" y="702" class="small5" style="font-size:22px;fill:#050608;font-weight:800">文件 / 命令 / 网络白名单</text>

      <circle cx="1018" cy="760" r="5.5" fill="#106BEF" opacity="0.80"/>
      <text x="1038" y="748" class="small5" style="font-size:22px;fill:#050608;font-weight:800">高风险权限差异</text>

    </g>


    <g>
      <circle cx="1458" cy="518" r="38" fill="#FF5A1F" opacity="0.11"/>
      <g transform="translate(1434 494) scale(0.75)"><rect x="12" y="10" width="40" height="44" rx="4" stroke="#FF5A1F" stroke-width="4" stroke-linecap="round" stroke-linejoin="round" fill="none"/><path d="M22 32 l8 8 l14 -18" stroke="#FF5A1F" stroke-width="4" stroke-linecap="round" stroke-linejoin="round" fill="none"/></g>
      <text x="1514" y="484" class="num5" style="font-size:34px;fill:#FF5A1F">04</text>
      <text x="1514" y="530" class="label5" style="font-size:30px">验证矩阵</text>
      <text x="1420" y="600" class="small5" style="font-size:22px;fill:#FF5A1F;font-weight:900">按风险选择验证</text>
      <path d="M1420 634 H1750" stroke="#FF5A1F" stroke-width="3.2" stroke-linecap="round" opacity="0.65"/>

      <circle cx="1438" cy="668" r="5.5" fill="#FF5A1F" opacity="0.80"/>
      <text x="1458" y="656" class="small5" style="font-size:22px;fill:#050608;font-weight:800">前端检查 / 类型 / 测试</text>

      <circle cx="1438" cy="714" r="5.5" fill="#FF5A1F" opacity="0.80"/>
      <text x="1458" y="702" class="small5" style="font-size:22px;fill:#050608;font-weight:800">深度评审专项测试</text>

      <circle cx="1438" cy="760" r="5.5" fill="#FF5A1F" opacity="0.80"/>
      <text x="1458" y="748" class="small5" style="font-size:22px;fill:#050608;font-weight:800">后端 / 桌面分层检查</text>

    </g>


    <rect x="170" y="954" width="1580" height="64" rx="10" fill="#FFFFFF" stroke="#C4C6C1" stroke-width="2"/>
    <path d="M240 971 v30" stroke="#106BEF" stroke-width="8" stroke-linecap="round"/>
    <text x="986" y="984" class="body5" text-anchor="middle" dominant-baseline="middle" alignment-baseline="middle" style="font-size:27px">关键不是让 AI 能做更多，而是让每次执行都有边界、审计和验证入口。</text>


</svg>