<?xml version="1.0" encoding="UTF-8"?>
<svg xmlns="http://www.w3.org/2000/svg" width="1920" height="1080" viewBox="0 0 1920 1080">
  <defs>
    <pattern id="lightDots" width="34" height="34" patternUnits="userSpaceOnUse">
      <circle cx="3" cy="3" r="1.7" fill="#C4C6C1" opacity="0.55"/>
    </pattern>
    <filter id="paperShadow" x="-18%" y="-18%" width="136%" height="150%">
      <feDropShadow dx="0" dy="12" stdDeviation="14" flood-color="#4B5563" flood-opacity="0.13"/>
    </filter>
    <marker id="arrowBlue" markerWidth="12" markerHeight="12" refX="9" refY="6" orient="auto" markerUnits="strokeWidth">
      <path d="M2 2 L10 6 L2 10" fill="none" stroke="#106BEF" stroke-width="2"/>
    </marker>
    <marker id="arrowGray" markerWidth="12" markerHeight="12" refX="9" refY="6" orient="auto" markerUnits="strokeWidth">
      <path d="M2 2 L10 6 L2 10" fill="none" stroke="#A5A9AE" stroke-width="2"/>
    </marker>
  </defs>
  <rect width="1920" height="1080" fill="#FBFAF7"/>

    <rect x="1560" y="76" width="168" height="134" rx="12" fill="none" stroke="#D7D7D2" stroke-width="2"/>
    <path d="M1578 118 h42 m-42 28 h112 m-112 28 h88" stroke="#D7D7D2" stroke-width="2" stroke-dasharray="5 8" fill="none"/>
    <path d="M1848 56 h-88 q-28 0 -28 28 v126" stroke="#D7D7D2" stroke-width="2" fill="none"/>
    <path d="M1782 890 v-190 q0 -32 32 -32 h50" stroke="#D7D7D2" stroke-width="2" fill="none"/>
    <path d="M1650 820 h112 q30 0 30 -30 v-80" stroke="#D7D7D2" stroke-width="2" fill="none"/>
    <circle cx="1800" cy="708" r="7" fill="#FFFFFF" stroke="#C4C6C1" stroke-width="2"/>
    <circle cx="1762" cy="820" r="7" fill="#106BEF"/>
    <circle cx="1848" cy="622" r="6" fill="#FF5A1F"/>
    <rect x="1378" y="720" width="180" height="120" fill="url(#lightDots)" opacity="0.48"/>
    <rect x="152" y="318" width="128" height="96" fill="url(#lightDots)" opacity="0.42"/>
    <path d="M70 740 h120 v118 h250" stroke="#D7D7D2" stroke-width="2" fill="none"/>
    <path d="M50 510 h116 q26 0 26 26 v52" stroke="#D7D7D2" stroke-width="2" fill="none"/>
    <circle cx="150" cy="857" r="5" fill="#FF5A1F"/>

    <g opacity="0.26" transform="translate(1350 820) scale(0.72)">
      <path d="M0 120 L110 60 L220 120 L110 180 Z" fill="none" stroke="#C4C6C1" stroke-width="2"/>
      <path d="M110 60 V180 M0 120 V220 M220 120 V220 M0 220 H320" stroke="#C4C6C1" stroke-width="2" fill="none"/>
      <path d="M260 50 h70 v170 h-70 Z M280 80 h30 M280 116 h30 M280 152 h30" stroke="#C4C6C1" stroke-width="2" fill="none"/>
      <path d="M360 96 h90 v124 h-90 Z M382 122 h46 M382 154 h46 M382 186 h46" stroke="#C4C6C1" stroke-width="2" fill="none"/>
      <path d="M88 144 h42 v76 h-42 Z M150 126 h48 v94 h-48 Z" stroke="#C4C6C1" stroke-width="2" fill="none"/>
    </g>



    <style>
      text { font-family: "Microsoft YaHei", "Noto Sans SC", "PingFang SC", "Segoe UI", Arial, sans-serif; dominant-baseline: hanging; }
      .brand5 { font-size: 42px; font-weight: 900; fill: #050608; }
      .num5 { font-family: "Arial", "Microsoft YaHei", sans-serif; font-weight: 900; fill: #050608; }
      .h15 { font-size: 68px; font-weight: 900; fill: #050608; letter-spacing: 0; }
      .h25 { font-size: 58px; font-weight: 900; fill: #050608; letter-spacing: 0; }
      .sub5 { font-size: 31px; font-weight: 560; fill: #5F6670; }
      .body5 { font-size: 30px; font-weight: 700; fill: #050608; }
      .muted5 { font-size: 24px; font-weight: 560; fill: #5F6670; }
      .label5 { font-size: 29px; font-weight: 900; fill: #050608; }
      .small5 { font-size: 23px; font-weight: 760; fill: #5F6670; }
      .micro5 { font-size: 19px; font-weight: 760; fill: #5F6670; }
    </style>
    <text x="42" y="46" class="brand5">BitFun</text>
    <text x="1840" y="50" class="small5" text-anchor="end">11 / 13</text>



    <text x="96" y="132" class="small5" style="fill:#106BEF;font-weight:900">04 / 开发者角色</text>
    <text x="96" y="188" class="h15" style="font-size:64px">在新工程系统中找准位置</text>
    <text x="100" y="282" class="sub5">人承担目标、边界、证据和责任；AI 承担生成、检索、运行和反馈。</text>
    <path d="M96 356 h112" stroke="#106BEF" stroke-width="8" stroke-linecap="round"/>
    <circle cx="230" cy="356" r="5.5" fill="#FF5A1F"/>

    <rect x="120" y="408" width="404" height="402" rx="18" fill="#FFFFFF" stroke="#C4C6C1" stroke-width="2" filter="url(#paperShadow)"/>
    <rect x="562" y="452" width="404" height="402" rx="18" fill="#FFFFFF" stroke="#C4C6C1" stroke-width="2" filter="url(#paperShadow)"/>
    <rect x="1004" y="408" width="404" height="402" rx="18" fill="#FFFFFF" stroke="#C4C6C1" stroke-width="2" filter="url(#paperShadow)"/>
    <rect x="1416" y="452" width="404" height="402" rx="18" fill="#FFFFFF" stroke="#C4C6C1" stroke-width="2" filter="url(#paperShadow)"/>

    <text x="156" y="442" class="num5" style="font-size:44px;fill:#106BEF">01</text>
    <text x="156" y="508" class="label5" style="font-size:32px">定义问题</text>
    <path d="M156 572 H440" stroke="#C4C6C1" stroke-width="3"/>
    <rect x="156" y="610" width="66" height="34" rx="17" fill="#106BEF" opacity="0.12"/>
    <text x="189" y="617" class="small5" text-anchor="middle" style="font-size:21px;fill:#106BEF;font-weight:900">人</text>
    <text x="238" y="615" class="small5" style="font-size:24px;fill:#050608;font-weight:820">价值、边界、风险</text>
    <path d="M156 674 H480" stroke="#C4C6C1" stroke-width="2"/>
    <rect x="156" y="708" width="66" height="34" rx="17" fill="#FF5A1F" opacity="0.13"/>
    <text x="189" y="715" class="small5" text-anchor="middle" style="font-size:21px;fill:#FF5A1F;font-weight:900">AI</text>
    <text x="238" y="713" class="small5" style="font-size:24px;fill:#050608;font-weight:820">信息整理、备选方案</text>
    <circle cx="454" cy="484" r="28" fill="#FBFAF7" stroke="#C4C6C1" stroke-width="2"/>
    <g transform="translate(436 466) scale(0.5625)"><path d="M12 18 h40 q8 0 8 8 v18 q0 8 -8 8 H32 l-12 9 v-9 h-8 q-8 0 -8-8 V26 q0-8 8-8 Z" stroke="#106BEF" stroke-width="5.333333333333333" stroke-linecap="round" stroke-linejoin="round" fill="none"/><circle cx="24" cy="35" r="2.4" fill="#106BEF"/><circle cx="34" cy="35" r="2.4" fill="#106BEF"/><circle cx="44" cy="35" r="2.4" fill="#106BEF"/></g>


    <text x="598" y="486" class="num5" style="font-size:44px;fill:#106BEF">02</text>
    <text x="598" y="552" class="label5" style="font-size:32px">组织上下文</text>
    <path d="M598 616 H882" stroke="#C4C6C1" stroke-width="3"/>
    <rect x="598" y="654" width="66" height="34" rx="17" fill="#106BEF" opacity="0.12"/>
    <text x="631" y="661" class="small5" text-anchor="middle" style="font-size:21px;fill:#106BEF;font-weight:900">人</text>
    <text x="680" y="659" class="small5" style="font-size:24px;fill:#050608;font-weight:820">架构取舍、事实源</text>
    <path d="M598 718 H922" stroke="#C4C6C1" stroke-width="2"/>
    <rect x="598" y="752" width="66" height="34" rx="17" fill="#FF5A1F" opacity="0.13"/>
    <text x="631" y="759" class="small5" text-anchor="middle" style="font-size:21px;fill:#FF5A1F;font-weight:900">AI</text>
    <text x="680" y="757" class="small5" style="font-size:24px;fill:#050608;font-weight:820">检索、摘要、计划草案</text>
    <circle cx="896" cy="528" r="28" fill="#FBFAF7" stroke="#C4C6C1" stroke-width="2"/>
    <g transform="translate(878 510) scale(0.5625)"><path d="M18 8 h22 l10 10 v38 H18 Z M40 8 v12 h12 M26 32 h20 M26 42 h18" stroke="#106BEF" stroke-width="5.333333333333333" stroke-linecap="round" stroke-linejoin="round" fill="none"/></g>


    <text x="1040" y="442" class="num5" style="font-size:44px;fill:#FF5A1F">03</text>
    <text x="1040" y="508" class="label5" style="font-size:32px">编排执行</text>
    <path d="M1040 572 H1324" stroke="#C4C6C1" stroke-width="3"/>
    <rect x="1040" y="610" width="66" height="34" rx="17" fill="#106BEF" opacity="0.12"/>
    <text x="1073" y="617" class="small5" text-anchor="middle" style="font-size:21px;fill:#106BEF;font-weight:900">人</text>
    <text x="1122" y="615" class="small5" style="font-size:24px;fill:#050608;font-weight:820">权限、节奏、验证矩阵</text>
    <path d="M1040 674 H1364" stroke="#C4C6C1" stroke-width="2"/>
    <rect x="1040" y="708" width="66" height="34" rx="17" fill="#FF5A1F" opacity="0.13"/>
    <text x="1073" y="715" class="small5" text-anchor="middle" style="font-size:21px;fill:#FF5A1F;font-weight:900">AI</text>
    <text x="1122" y="713" class="small5" style="font-size:24px;fill:#050608;font-weight:820">生成、运行、反馈</text>
    <circle cx="1338" cy="484" r="28" fill="#FBFAF7" stroke="#C4C6C1" stroke-width="2"/>
    <g transform="translate(1320 466) scale(0.5625)"><path d="M18 18 L34 32 L18 46" stroke="#FF5A1F" stroke-width="5.333333333333333" stroke-linecap="round" stroke-linejoin="round" fill="none"/><path d="M38 48 h16" stroke="#FF5A1F" stroke-width="5.333333333333333" stroke-linecap="round" stroke-linejoin="round" fill="none"/></g>


    <text x="1452" y="486" class="num5" style="font-size:44px;fill:#FF5A1F">04</text>
    <text x="1452" y="552" class="label5" style="font-size:32px">证据放行</text>
    <path d="M1452 616 H1736" stroke="#C4C6C1" stroke-width="3"/>
    <rect x="1452" y="654" width="66" height="34" rx="17" fill="#106BEF" opacity="0.12"/>
    <text x="1485" y="661" class="small5" text-anchor="middle" style="font-size:21px;fill:#106BEF;font-weight:900">人</text>
    <text x="1534" y="659" class="small5" style="font-size:24px;fill:#050608;font-weight:820">责任、解释、复盘</text>
    <path d="M1452 718 H1776" stroke="#C4C6C1" stroke-width="2"/>
    <rect x="1452" y="752" width="66" height="34" rx="17" fill="#FF5A1F" opacity="0.13"/>
    <text x="1485" y="759" class="small5" text-anchor="middle" style="font-size:21px;fill:#FF5A1F;font-weight:900">AI</text>
    <text x="1534" y="757" class="small5" style="font-size:24px;fill:#050608;font-weight:820">trace、diff、测试</text>
    <circle cx="1750" cy="528" r="28" fill="#FBFAF7" stroke="#C4C6C1" stroke-width="2"/>
    <g transform="translate(1732 510) scale(0.5625)"><rect x="12" y="10" width="40" height="44" rx="4" stroke="#FF5A1F" stroke-width="5.333333333333333" stroke-linecap="round" stroke-linejoin="round" fill="none"/><path d="M22 32 l8 8 l14 -18" stroke="#FF5A1F" stroke-width="5.333333333333333" stroke-linecap="round" stroke-linejoin="round" fill="none"/></g>

    <path d="M510 604 H548 M952 648 H990 M1394 604 H1402" stroke="#106BEF" stroke-width="5" fill="none" marker-end="url(#arrowBlue)"/>

    <rect x="260" y="936" width="1400" height="78" rx="10" fill="#FFFFFF" stroke="#C4C6C1" stroke-width="2"/>
    <path d="M336 956 v38" stroke="#106BEF" stroke-width="8" stroke-linecap="round"/>
    <text x="992" y="958" class="body5" text-anchor="middle" style="font-size:30px">关键不是“谁替代谁”，而是人在目标、边界、证据、责任上站稳。</text>


</svg>