<?xml version="1.0" encoding="UTF-8"?>
<svg xmlns="http://www.w3.org/2000/svg" width="1920" height="1080" viewBox="0 0 1920 1080">
  <defs>
    <pattern id="lightDots" width="34" height="34" patternUnits="userSpaceOnUse">
      <circle cx="3" cy="3" r="1.7" fill="#C4C6C1" opacity="0.55"/>
    </pattern>
    <filter id="paperShadow" x="-18%" y="-18%" width="136%" height="150%">
      <feDropShadow dx="0" dy="12" stdDeviation="14" flood-color="#4B5563" flood-opacity="0.13"/>
    </filter>
    <marker id="arrowBlue" markerWidth="12" markerHeight="12" refX="9" refY="6" orient="auto" markerUnits="strokeWidth">
      <path d="M2 2 L10 6 L2 10" fill="none" stroke="#106BEF" stroke-width="2"/>
    </marker>
    <marker id="arrowGray" markerWidth="12" markerHeight="12" refX="9" refY="6" orient="auto" markerUnits="strokeWidth">
      <path d="M2 2 L10 6 L2 10" fill="none" stroke="#A5A9AE" stroke-width="2"/>
    </marker>
  </defs>
  <rect width="1920" height="1080" fill="#FBFAF7"/>
  
    <rect x="1560" y="76" width="168" height="134" rx="12" fill="none" stroke="#D7D7D2" stroke-width="2"/>
    <path d="M1578 118 h42 m-42 28 h112 m-112 28 h88" stroke="#D7D7D2" stroke-width="2" stroke-dasharray="5 8" fill="none"/>
    <path d="M1848 56 h-88 q-28 0 -28 28 v126" stroke="#D7D7D2" stroke-width="2" fill="none"/>
    <path d="M1782 890 v-190 q0 -32 32 -32 h50" stroke="#D7D7D2" stroke-width="2" fill="none"/>
    <path d="M1650 820 h112 q30 0 30 -30 v-80" stroke="#D7D7D2" stroke-width="2" fill="none"/>
    <circle cx="1800" cy="708" r="7" fill="#FFFFFF" stroke="#C4C6C1" stroke-width="2"/>
    <circle cx="1762" cy="820" r="7" fill="#106BEF"/>
    <circle cx="1848" cy="622" r="6" fill="#FF5A1F"/>
    <rect x="1378" y="720" width="180" height="120" fill="url(#lightDots)" opacity="0.48"/>
    <rect x="152" y="318" width="128" height="96" fill="url(#lightDots)" opacity="0.42"/>
    <path d="M70 740 h120 v118 h250" stroke="#D7D7D2" stroke-width="2" fill="none"/>
    <path d="M50 510 h116 q26 0 26 26 v52" stroke="#D7D7D2" stroke-width="2" fill="none"/>
    <circle cx="150" cy="857" r="5" fill="#FF5A1F"/>
    
    <g opacity="0.26" transform="translate(1350 820) scale(0.72)">
      <path d="M0 120 L110 60 L220 120 L110 180 Z" fill="none" stroke="#C4C6C1" stroke-width="2"/>
      <path d="M110 60 V180 M0 120 V220 M220 120 V220 M0 220 H320" stroke="#C4C6C1" stroke-width="2" fill="none"/>
      <path d="M260 50 h70 v170 h-70 Z M280 80 h30 M280 116 h30 M280 152 h30" stroke="#C4C6C1" stroke-width="2" fill="none"/>
      <path d="M360 96 h90 v124 h-90 Z M382 122 h46 M382 154 h46 M382 186 h46" stroke="#C4C6C1" stroke-width="2" fill="none"/>
      <path d="M88 144 h42 v76 h-42 Z M150 126 h48 v94 h-48 Z" stroke="#C4C6C1" stroke-width="2" fill="none"/>
    </g>
  
  
  
    <style>
      text { font-family: "Microsoft YaHei", "Noto Sans SC", "PingFang SC", "Segoe UI", Arial, sans-serif; dominant-baseline: hanging; }
      .brand5 { font-size: 42px; font-weight: 900; fill: #050608; }
      .num5 { font-family: "Arial", "Microsoft YaHei", sans-serif; font-weight: 900; fill: #050608; }
      .h15 { font-size: 68px; font-weight: 900; fill: #050608; letter-spacing: 0; }
      .h25 { font-size: 58px; font-weight: 900; fill: #050608; letter-spacing: 0; }
      .sub5 { font-size: 31px; font-weight: 560; fill: #5F6670; }
      .body5 { font-size: 30px; font-weight: 700; fill: #050608; }
      .muted5 { font-size: 24px; font-weight: 560; fill: #5F6670; }
      .label5 { font-size: 29px; font-weight: 900; fill: #050608; }
      .small5 { font-size: 23px; font-weight: 760; fill: #5F6670; }
      .micro5 { font-size: 19px; font-weight: 760; fill: #5F6670; }
    </style>
    <text x="42" y="46" class="brand5">BitFun</text>
    <text x="1840" y="50" class="small5" text-anchor="end">03 / 11</text>
  
  
    
    <text x="96" y="132" class="small5" style="fill:#106BEF;font-weight:900">主题一 / 全局主线</text>
    <text x="96" y="188" class="h15" style="font-size:68px">从写代码，到组织智能协作系统</text>
    <text x="100" y="282" class="sub5">软件工程对象正在扩大</text>
    <path d="M96 356 h112" stroke="#106BEF" stroke-width="8" stroke-linecap="round"/>
    <circle cx="230" cy="356" r="5.5" fill="#FF5A1F"/>
  
    <text x="104" y="420" class="body5">核心不是 AI 会写多少代码，而是软件工程的对象正在扩大。</text>
    <text x="104" y="472" class="muted5">从代码、函数和文件，扩展到任务、上下文、工具、验证、反馈、人类监督和组织流程。</text>
    <path d="M180 720 C420 630 650 746 870 686 C1050 632 1226 642 1420 666" stroke="#106BEF" stroke-width="5" fill="none" marker-end="url(#arrowBlue)"/>
    <path d="M180 720 C420 630 650 746 870 686 C1050 632 1226 642 1420 666" stroke="#C4C6C1" stroke-width="2" fill="none" opacity="0.55"/>
    
    <rect x="196" y="662" width="112" height="112" rx="16" fill="#FFFFFF" stroke="#C4C6C1" stroke-width="2" filter="url(#paperShadow)"/>
    <g transform="translate(220 686) scale(1)"><path d="M18 18 L34 32 L18 46" stroke="#106BEF" stroke-width="3" stroke-linecap="round" stroke-linejoin="round" fill="none"/><path d="M38 48 h16" stroke="#106BEF" stroke-width="3" stroke-linecap="round" stroke-linejoin="round" fill="none"/></g>
    <text x="252" y="592" class="num5" text-anchor="middle" style="font-size:46px">01</text>
    <text x="252" y="634" class="small5" text-anchor="middle" style="fill:#050608;font-weight:780">概率性生成</text>
    <path d="M252 774 v42" stroke="#C4C6C1" stroke-width="2" stroke-dasharray="6 8"/>
    <circle cx="252" cy="828" r="6" fill="#106BEF"/>
    <text x="252" y="850" class="small5" text-anchor="middle" style="fill:#050608;font-weight:760">AI 产出建议</text>
  
    
    <rect x="660" y="602" width="112" height="112" rx="16" fill="#FFFFFF" stroke="#C4C6C1" stroke-width="2" filter="url(#paperShadow)"/>
    <g transform="translate(684 626) scale(1)"><rect x="12" y="10" width="40" height="44" rx="4" stroke="#FF5A1F" stroke-width="3" stroke-linecap="round" stroke-linejoin="round" fill="none"/><path d="M22 32 l8 8 l14 -18" stroke="#FF5A1F" stroke-width="3" stroke-linecap="round" stroke-linejoin="round" fill="none"/></g>
    <text x="716" y="532" class="num5" text-anchor="middle" style="font-size:46px">02</text>
    <text x="716" y="574" class="small5" text-anchor="middle" style="fill:#050608;font-weight:780">确定性验证</text>
    <path d="M716 714 v42" stroke="#C4C6C1" stroke-width="2" stroke-dasharray="6 8"/>
    <circle cx="716" cy="768" r="6" fill="#FF5A1F"/>
    <text x="716" y="790" class="small5" text-anchor="middle" style="fill:#050608;font-weight:760">构建 / 测试 / 评审</text>
  
    
    <rect x="1110" y="610" width="112" height="112" rx="16" fill="#FFFFFF" stroke="#C4C6C1" stroke-width="2" filter="url(#paperShadow)"/>
    <g transform="translate(1134 634) scale(1)"><circle cx="32" cy="22" r="8" stroke="#106BEF" stroke-width="3" stroke-linecap="round" stroke-linejoin="round" fill="none"/><circle cx="18" cy="30" r="6" stroke="#106BEF" stroke-width="3" stroke-linecap="round" stroke-linejoin="round" fill="none"/><circle cx="46" cy="30" r="6" stroke="#106BEF" stroke-width="3" stroke-linecap="round" stroke-linejoin="round" fill="none"/><path d="M14 50 q18 -16 36 0 M4 54 q14 -12 28 -5 M32 49 q14 -7 28 5" stroke="#106BEF" stroke-width="3" stroke-linecap="round" stroke-linejoin="round" fill="none"/></g>
    <text x="1166" y="540" class="num5" text-anchor="middle" style="font-size:46px">03</text>
    <text x="1166" y="582" class="small5" text-anchor="middle" style="fill:#050608;font-weight:780">工程节奏</text>
    <path d="M1166 722 v42" stroke="#C4C6C1" stroke-width="2" stroke-dasharray="6 8"/>
    <circle cx="1166" cy="776" r="6" fill="#106BEF"/>
    <text x="1166" y="798" class="small5" text-anchor="middle" style="fill:#050608;font-weight:760">稳定吸收变化</text>
  
    <rect x="1358" y="462" width="430" height="178" rx="14" fill="#FFFFFF" stroke="#C4C6C1" stroke-width="2" filter="url(#paperShadow)"/>
    <text x="1392" y="504" class="small5" style="fill:#106BEF;font-weight:900">报告主线</text>
    <text x="1392" y="558" class="label5">从会生成</text>
    <text x="1392" y="606" class="small5">走向可验证、可治理、可协作</text>
    
    <rect x="320" y="918" width="1280" height="82" rx="10" fill="#FFFFFF" stroke="#C4C6C1" stroke-width="2"/>
    <path d="M402 939 v40" stroke="#106BEF" stroke-width="8" stroke-linecap="round"/>
    <text x="450" y="940" class="body5" style="font-size:31px">AI 重新定义软件开发，是从“写代码”走向“组织智能协作系统”。</text>
  
  
</svg>