<?xml version="1.0" encoding="UTF-8"?>
<svg xmlns="http://www.w3.org/2000/svg" width="1920" height="1080" viewBox="0 0 1920 1080">
  <defs>
    <pattern id="lightDots" width="34" height="34" patternUnits="userSpaceOnUse">
      <circle cx="3" cy="3" r="1.7" fill="#C4C6C1" opacity="0.55"/>
    </pattern>
    <filter id="paperShadow" x="-18%" y="-18%" width="136%" height="150%">
      <feDropShadow dx="0" dy="12" stdDeviation="14" flood-color="#4B5563" flood-opacity="0.13"/>
    </filter>
    <marker id="arrowBlue" markerWidth="12" markerHeight="12" refX="9" refY="6" orient="auto" markerUnits="strokeWidth">
      <path d="M2 2 L10 6 L2 10" fill="none" stroke="#106BEF" stroke-width="2"/>
    </marker>
    <marker id="arrowGray" markerWidth="12" markerHeight="12" refX="9" refY="6" orient="auto" markerUnits="strokeWidth">
      <path d="M2 2 L10 6 L2 10" fill="none" stroke="#A5A9AE" stroke-width="2"/>
    </marker>
  </defs>
  <rect width="1920" height="1080" fill="#FBFAF7"/>
  
    <rect x="1560" y="76" width="168" height="134" rx="12" fill="none" stroke="#D7D7D2" stroke-width="2"/>
    <path d="M1578 118 h42 m-42 28 h112 m-112 28 h88" stroke="#D7D7D2" stroke-width="2" stroke-dasharray="5 8" fill="none"/>
    <path d="M1848 56 h-88 q-28 0 -28 28 v126" stroke="#D7D7D2" stroke-width="2" fill="none"/>
    <path d="M1782 890 v-190 q0 -32 32 -32 h50" stroke="#D7D7D2" stroke-width="2" fill="none"/>
    <path d="M1650 820 h112 q30 0 30 -30 v-80" stroke="#D7D7D2" stroke-width="2" fill="none"/>
    <circle cx="1800" cy="708" r="7" fill="#FFFFFF" stroke="#C4C6C1" stroke-width="2"/>
    <circle cx="1762" cy="820" r="7" fill="#106BEF"/>
    <circle cx="1848" cy="622" r="6" fill="#FF5A1F"/>
    <rect x="1378" y="720" width="180" height="120" fill="url(#lightDots)" opacity="0.48"/>
    <rect x="152" y="318" width="128" height="96" fill="url(#lightDots)" opacity="0.42"/>
    <path d="M70 740 h120 v118 h250" stroke="#D7D7D2" stroke-width="2" fill="none"/>
    <path d="M50 510 h116 q26 0 26 26 v52" stroke="#D7D7D2" stroke-width="2" fill="none"/>
    <circle cx="150" cy="857" r="5" fill="#FF5A1F"/>
    
    <g opacity="0.26" transform="translate(1350 820) scale(0.72)">
      <path d="M0 120 L110 60 L220 120 L110 180 Z" fill="none" stroke="#C4C6C1" stroke-width="2"/>
      <path d="M110 60 V180 M0 120 V220 M220 120 V220 M0 220 H320" stroke="#C4C6C1" stroke-width="2" fill="none"/>
      <path d="M260 50 h70 v170 h-70 Z M280 80 h30 M280 116 h30 M280 152 h30" stroke="#C4C6C1" stroke-width="2" fill="none"/>
      <path d="M360 96 h90 v124 h-90 Z M382 122 h46 M382 154 h46 M382 186 h46" stroke="#C4C6C1" stroke-width="2" fill="none"/>
      <path d="M88 144 h42 v76 h-42 Z M150 126 h48 v94 h-48 Z" stroke="#C4C6C1" stroke-width="2" fill="none"/>
    </g>
  
  
  
    <style>
      text { font-family: "Microsoft YaHei", "Noto Sans SC", "PingFang SC", "Segoe UI", Arial, sans-serif; dominant-baseline: hanging; }
      .brand5 { font-size: 42px; font-weight: 900; fill: #050608; }
      .num5 { font-family: "Arial", "Microsoft YaHei", sans-serif; font-weight: 900; fill: #050608; }
      .h15 { font-size: 68px; font-weight: 900; fill: #050608; letter-spacing: 0; }
      .h25 { font-size: 58px; font-weight: 900; fill: #050608; letter-spacing: 0; }
      .sub5 { font-size: 31px; font-weight: 560; fill: #5F6670; }
      .body5 { font-size: 30px; font-weight: 700; fill: #050608; }
      .muted5 { font-size: 24px; font-weight: 560; fill: #5F6670; }
      .label5 { font-size: 29px; font-weight: 900; fill: #050608; }
      .small5 { font-size: 23px; font-weight: 760; fill: #5F6670; }
      .micro5 { font-size: 19px; font-weight: 760; fill: #5F6670; }
    </style>
    <text x="42" y="46" class="brand5">BitFun</text>
    <text x="1840" y="50" class="small5" text-anchor="end">08 / 11</text>
  
  
    
    <text x="96" y="132" class="small5" style="fill:#106BEF;font-weight:900">05 / 成熟补法</text>
    <text x="96" y="188" class="h15" style="font-size:66px">让快速变化进入工程护栏</text>
    <text x="100" y="282" class="sub5">用代码检视、架构稳定性、性能看护和发布控制接住 AI 产出。</text>
    <path d="M96 356 h112" stroke="#106BEF" stroke-width="8" stroke-linecap="round"/>
    <circle cx="230" cy="356" r="5.5" fill="#FF5A1F"/>
  
    <path d="M300 668 H1620" stroke="#C4C6C1" stroke-width="4"/>
    <path d="M300 668 H1620" stroke="#106BEF" stroke-width="5" stroke-linecap="round" opacity="0.82"/>
    
    <rect x="120" y="460" width="390" height="136" rx="14" fill="#FFFFFF" stroke="#C4C6C1" stroke-width="2" filter="url(#paperShadow)"/>
    <g transform="translate(150 499) scale(0.90625)"><circle cx="32" cy="22" r="8" stroke="#106BEF" stroke-width="3.310344827586207" stroke-linecap="round" stroke-linejoin="round" fill="none"/><circle cx="18" cy="30" r="6" stroke="#106BEF" stroke-width="3.310344827586207" stroke-linecap="round" stroke-linejoin="round" fill="none"/><circle cx="46" cy="30" r="6" stroke="#106BEF" stroke-width="3.310344827586207" stroke-linecap="round" stroke-linejoin="round" fill="none"/><path d="M14 50 q18 -16 36 0 M4 54 q14 -12 28 -5 M32 49 q14 -7 28 5" stroke="#106BEF" stroke-width="3.310344827586207" stroke-linecap="round" stroke-linejoin="round" fill="none"/></g>
    
    <text x="238" y="495" class="label5" style="font-size:29px">代码检视</text>
    <text x="238" y="535" class="small5" style="font-size:23px">负责人 / 检查</text>
  
    
    <rect x="550" y="460" width="390" height="136" rx="14" fill="#FFFFFF" stroke="#C4C6C1" stroke-width="2" filter="url(#paperShadow)"/>
    <g transform="translate(580 499) scale(0.90625)"><path d="M32 6 L54 18 V44 L32 58 L10 44 V18 Z M10 18 L32 32 L54 18 M32 32 V58" stroke="#106BEF" stroke-width="3.310344827586207" stroke-linecap="round" stroke-linejoin="round" fill="none"/><path d="M20 13 l22 14 M44 12 L22 27" stroke="#106BEF" stroke-width="3.310344827586207" stroke-linecap="round" stroke-linejoin="round" fill="none" opacity="0.55"/></g>
    
    <text x="668" y="495" class="label5" style="font-size:29px">架构稳定性</text>
    <text x="668" y="535" class="small5" style="font-size:23px">设计记录 / 边界检查</text>
  
    
    <rect x="980" y="460" width="390" height="136" rx="14" fill="#FFFFFF" stroke="#C4C6C1" stroke-width="2" filter="url(#paperShadow)"/>
    <g transform="translate(1010 499) scale(0.90625)"><rect x="12" y="10" width="40" height="13" rx="4" stroke="#FF5A1F" stroke-width="3.310344827586207" stroke-linecap="round" stroke-linejoin="round" fill="none"/><rect x="12" y="29" width="40" height="13" rx="4" stroke="#FF5A1F" stroke-width="3.310344827586207" stroke-linecap="round" stroke-linejoin="round" fill="none"/><rect x="12" y="48" width="40" height="13" rx="4" stroke="#FF5A1F" stroke-width="3.310344827586207" stroke-linecap="round" stroke-linejoin="round" fill="none"/><circle cx="22" cy="16.5" r="1.8" fill="#FF5A1F"/><circle cx="22" cy="35.5" r="1.8" fill="#FF5A1F"/><circle cx="22" cy="54.5" r="1.8" fill="#FF5A1F"/></g>
    
    <text x="1098" y="495" class="label5" style="font-size:29px">性能看护</text>
    <text x="1098" y="535" class="small5" style="font-size:23px">基准测试 / 追踪</text>
  
    
    <rect x="1410" y="460" width="390" height="136" rx="14" fill="#FFFFFF" stroke="#C4C6C1" stroke-width="2" filter="url(#paperShadow)"/>
    <g transform="translate(1440 499) scale(0.90625)"><path d="M32 6 L52 14 V30 q0 18 -20 28 Q12 48 12 30 V14 Z M22 32 l7 7 l15 -18" stroke="#FF5A1F" stroke-width="3.310344827586207" stroke-linecap="round" stroke-linejoin="round" fill="none"/></g>
    
    <text x="1528" y="495" class="label5" style="font-size:29px">发布控制</text>
    <text x="1528" y="535" class="small5" style="font-size:23px">灰度 / 回滚</text>
  
    <rect x="190" y="724" width="1540" height="136" rx="16" fill="#FBFAF7" stroke="#C4C6C1" stroke-width="2"/>
    <text x="240" y="776" class="label5">共同目标：把“模型说完成”变成“工程证据可放行”</text>
    <text x="240" y="818" class="small5">生成过程可以概率化；合并、发布和线上运行必须依赖可复现、可比较、可审计的确定性验证。</text>
    
    <rect x="320" y="946" width="1280" height="82" rx="10" fill="#FFFFFF" stroke="#C4C6C1" stroke-width="2"/>
    <path d="M402 967 v40" stroke="#106BEF" stroke-width="8" stroke-linecap="round"/>
    <text x="450" y="968" class="body5" style="font-size:31px">AI 时代不是少做工程，而是把工程约束重新设计给 Agent。</text>
  
  
</svg>