<?xml version="1.0" encoding="UTF-8"?>
<svg xmlns="http://www.w3.org/2000/svg" width="1920" height="1080" viewBox="0 0 1920 1080">
  <defs>
    <pattern id="lightDots" width="34" height="34" patternUnits="userSpaceOnUse">
      <circle cx="3" cy="3" r="1.7" fill="#C4C6C1" opacity="0.55"/>
    </pattern>
    <filter id="paperShadow" x="-18%" y="-18%" width="136%" height="150%">
      <feDropShadow dx="0" dy="12" stdDeviation="14" flood-color="#4B5563" flood-opacity="0.13"/>
    </filter>
    <marker id="arrowBlue" markerWidth="12" markerHeight="12" refX="9" refY="6" orient="auto" markerUnits="strokeWidth">
      <path d="M2 2 L10 6 L2 10" fill="none" stroke="#106BEF" stroke-width="2"/>
    </marker>
    <marker id="arrowGray" markerWidth="12" markerHeight="12" refX="9" refY="6" orient="auto" markerUnits="strokeWidth">
      <path d="M2 2 L10 6 L2 10" fill="none" stroke="#A5A9AE" stroke-width="2"/>
    </marker>
  </defs>
  <rect width="1920" height="1080" fill="#FBFAF7"/>
  
    <rect x="1560" y="76" width="168" height="134" rx="12" fill="none" stroke="#D7D7D2" stroke-width="2"/>
    <path d="M1578 118 h42 m-42 28 h112 m-112 28 h88" stroke="#D7D7D2" stroke-width="2" stroke-dasharray="5 8" fill="none"/>
    <path d="M1848 56 h-88 q-28 0 -28 28 v126" stroke="#D7D7D2" stroke-width="2" fill="none"/>
    <path d="M1782 890 v-190 q0 -32 32 -32 h50" stroke="#D7D7D2" stroke-width="2" fill="none"/>
    <path d="M1650 820 h112 q30 0 30 -30 v-80" stroke="#D7D7D2" stroke-width="2" fill="none"/>
    <circle cx="1800" cy="708" r="7" fill="#FFFFFF" stroke="#C4C6C1" stroke-width="2"/>
    <circle cx="1762" cy="820" r="7" fill="#106BEF"/>
    <circle cx="1848" cy="622" r="6" fill="#FF5A1F"/>
    <rect x="1378" y="720" width="180" height="120" fill="url(#lightDots)" opacity="0.48"/>
    <rect x="152" y="318" width="128" height="96" fill="url(#lightDots)" opacity="0.42"/>
    <path d="M70 740 h120 v118 h250" stroke="#D7D7D2" stroke-width="2" fill="none"/>
    <path d="M50 510 h116 q26 0 26 26 v52" stroke="#D7D7D2" stroke-width="2" fill="none"/>
    <circle cx="150" cy="857" r="5" fill="#FF5A1F"/>
    
    <g opacity="0.26" transform="translate(1350 820) scale(0.72)">
      <path d="M0 120 L110 60 L220 120 L110 180 Z" fill="none" stroke="#C4C6C1" stroke-width="2"/>
      <path d="M110 60 V180 M0 120 V220 M220 120 V220 M0 220 H320" stroke="#C4C6C1" stroke-width="2" fill="none"/>
      <path d="M260 50 h70 v170 h-70 Z M280 80 h30 M280 116 h30 M280 152 h30" stroke="#C4C6C1" stroke-width="2" fill="none"/>
      <path d="M360 96 h90 v124 h-90 Z M382 122 h46 M382 154 h46 M382 186 h46" stroke="#C4C6C1" stroke-width="2" fill="none"/>
      <path d="M88 144 h42 v76 h-42 Z M150 126 h48 v94 h-48 Z" stroke="#C4C6C1" stroke-width="2" fill="none"/>
    </g>
  
  
  
    <style>
      text { font-family: "Microsoft YaHei", "Noto Sans SC", "PingFang SC", "Segoe UI", Arial, sans-serif; dominant-baseline: hanging; }
      .brand5 { font-size: 42px; font-weight: 900; fill: #050608; }
      .num5 { font-family: "Arial", "Microsoft YaHei", sans-serif; font-weight: 900; fill: #050608; }
      .h15 { font-size: 68px; font-weight: 900; fill: #050608; letter-spacing: 0; }
      .h25 { font-size: 58px; font-weight: 900; fill: #050608; letter-spacing: 0; }
      .sub5 { font-size: 31px; font-weight: 560; fill: #5F6670; }
      .body5 { font-size: 30px; font-weight: 700; fill: #050608; }
      .muted5 { font-size: 24px; font-weight: 560; fill: #5F6670; }
      .label5 { font-size: 29px; font-weight: 900; fill: #050608; }
      .small5 { font-size: 23px; font-weight: 760; fill: #5F6670; }
      .micro5 { font-size: 19px; font-weight: 760; fill: #5F6670; }
    </style>
    <text x="42" y="46" class="brand5">BitFun</text>
    <text x="1840" y="50" class="small5" text-anchor="end">10 / 11</text>
  
  
    
    <text x="96" y="132" class="small5" style="fill:#106BEF;font-weight:900">07 / 角色变化</text>
    <text x="96" y="188" class="h15" style="font-size:64px">从会写代码，到会组织智能协作系统</text>
    <text x="100" y="282" class="sub5">未来优秀的软件人才，会设计人与 AI Agent 共同工作的工程系统。</text>
    <path d="M96 356 h112" stroke="#106BEF" stroke-width="8" stroke-linecap="round"/>
    <circle cx="230" cy="356" r="5.5" fill="#FF5A1F"/>
  
    <path d="M230 768 L230 692 L520 692 L520 616 L810 616 L810 540 L1100 540 L1100 464 L1390 464 L1390 388" stroke="#C4C6C1" stroke-width="6" fill="none"/>
    <path d="M230 768 L230 692 L520 692 L520 616 L810 616 L810 540 L1100 540 L1100 464 L1390 464 L1390 388" stroke="#106BEF" stroke-width="4" fill="none" marker-end="url(#arrowBlue)"/>
    
    <circle cx="230" cy="768" r="12" fill="#A5A9AE"/>
    <rect x="248" y="646" width="365" height="112" rx="10" fill="#FBFAF7" opacity="0.94"/>
    <text x="260" y="660" class="num5" style="font-size:30px;fill:#A5A9AE">01</text>
    <text x="260" y="702" class="label5">写代码</text>
    <text x="260" y="743" class="small5">理解语言、框架和系统行为</text>
  
    
    <circle cx="520" cy="692" r="12" fill="#106BEF"/>
    <rect x="538" y="570" width="365" height="112" rx="10" fill="#FBFAF7" opacity="0.94"/>
    <text x="550" y="584" class="num5" style="font-size:30px;fill:#106BEF">02</text>
    <text x="550" y="626" class="label5">定义任务</text>
    <text x="550" y="667" class="small5">把模糊需求变成可执行问题</text>
  
    
    <circle cx="810" cy="616" r="12" fill="#106BEF"/>
    <rect x="828" y="494" width="365" height="112" rx="10" fill="#FBFAF7" opacity="0.94"/>
    <text x="840" y="508" class="num5" style="font-size:30px;fill:#106BEF">03</text>
    <text x="840" y="550" class="label5">组织上下文</text>
    <text x="840" y="591" class="small5">让 Agent 看见正确事实</text>
  
    
    <circle cx="1100" cy="540" r="12" fill="#FF5A1F"/>
    <rect x="1118" y="418" width="365" height="112" rx="10" fill="#FBFAF7" opacity="0.94"/>
    <text x="1130" y="432" class="num5" style="font-size:30px;fill:#FF5A1F">04</text>
    <text x="1130" y="474" class="label5">设计验证闭环</text>
    <text x="1130" y="515" class="small5">测试、评审、指标、追踪</text>
  
    
    <circle cx="1390" cy="464" r="12" fill="#FF5A1F"/>
    <rect x="1408" y="342" width="365" height="112" rx="10" fill="#FBFAF7" opacity="0.94"/>
    <text x="1420" y="356" class="num5" style="font-size:30px;fill:#FF5A1F">05</text>
    <text x="1420" y="398" class="label5">治理协作系统</text>
    <text x="1420" y="439" class="small5">权限、责任、回滚、复盘</text>
  
    <rect x="250" y="826" width="1420" height="78" rx="12" fill="#FBFAF7" stroke="#C4C6C1" stroke-width="2"/>
    <path d="M292 848 v34" stroke="#106BEF" stroke-width="7" stroke-linecap="round"/>
    <text x="330" y="848" class="body5" style="font-size:30px;fill:#106BEF;font-weight:900">评价从“代码能跑”扩展到“定义问题、验证结果、解释风险”。</text>
    
    <rect x="300" y="938" width="1320" height="82" rx="10" fill="#FFFFFF" stroke="#C4C6C1" stroke-width="2"/>
    <path d="M382 959 v40" stroke="#106BEF" stroke-width="8" stroke-linecap="round"/>
    <text x="430" y="960" class="body5" style="font-size:31px">未来优秀的软件人才，是会设计人与 AI Agent 共同工作的工程系统的人。</text>
  
  
</svg>