<?xml version="1.0" encoding="UTF-8"?>
<svg xmlns="http://www.w3.org/2000/svg" width="1920" height="1080" viewBox="0 0 1920 1080">
  <defs>
    <pattern id="lightDots" width="34" height="34" patternUnits="userSpaceOnUse">
      <circle cx="3" cy="3" r="1.7" fill="#C4C6C1" opacity="0.55"/>
    </pattern>
    <filter id="paperShadow" x="-18%" y="-18%" width="136%" height="150%">
      <feDropShadow dx="0" dy="12" stdDeviation="14" flood-color="#4B5563" flood-opacity="0.13"/>
    </filter>
    <marker id="arrowBlue" markerWidth="12" markerHeight="12" refX="9" refY="6" orient="auto" markerUnits="strokeWidth">
      <path d="M2 2 L10 6 L2 10" fill="none" stroke="#106BEF" stroke-width="2"/>
    </marker>
    <marker id="arrowGray" markerWidth="12" markerHeight="12" refX="9" refY="6" orient="auto" markerUnits="strokeWidth">
      <path d="M2 2 L10 6 L2 10" fill="none" stroke="#A5A9AE" stroke-width="2"/>
    </marker>
  </defs>
  <rect width="1920" height="1080" fill="#FBFAF7"/>
  
    <rect x="1560" y="76" width="168" height="134" rx="12" fill="none" stroke="#D7D7D2" stroke-width="2"/>
    <path d="M1578 118 h42 m-42 28 h112 m-112 28 h88" stroke="#D7D7D2" stroke-width="2" stroke-dasharray="5 8" fill="none"/>
    <path d="M1848 56 h-88 q-28 0 -28 28 v126" stroke="#D7D7D2" stroke-width="2" fill="none"/>
    <path d="M1782 890 v-190 q0 -32 32 -32 h50" stroke="#D7D7D2" stroke-width="2" fill="none"/>
    <path d="M1650 820 h112 q30 0 30 -30 v-80" stroke="#D7D7D2" stroke-width="2" fill="none"/>
    <circle cx="1800" cy="708" r="7" fill="#FFFFFF" stroke="#C4C6C1" stroke-width="2"/>
    <circle cx="1762" cy="820" r="7" fill="#106BEF"/>
    <circle cx="1848" cy="622" r="6" fill="#FF5A1F"/>
    <rect x="1378" y="720" width="180" height="120" fill="url(#lightDots)" opacity="0.48"/>
    <rect x="152" y="318" width="128" height="96" fill="url(#lightDots)" opacity="0.42"/>
    <path d="M70 740 h120 v118 h250" stroke="#D7D7D2" stroke-width="2" fill="none"/>
    <path d="M50 510 h116 q26 0 26 26 v52" stroke="#D7D7D2" stroke-width="2" fill="none"/>
    <circle cx="150" cy="857" r="5" fill="#FF5A1F"/>
    
    <g opacity="0.26" transform="translate(1350 820) scale(0.72)">
      <path d="M0 120 L110 60 L220 120 L110 180 Z" fill="none" stroke="#C4C6C1" stroke-width="2"/>
      <path d="M110 60 V180 M0 120 V220 M220 120 V220 M0 220 H320" stroke="#C4C6C1" stroke-width="2" fill="none"/>
      <path d="M260 50 h70 v170 h-70 Z M280 80 h30 M280 116 h30 M280 152 h30" stroke="#C4C6C1" stroke-width="2" fill="none"/>
      <path d="M360 96 h90 v124 h-90 Z M382 122 h46 M382 154 h46 M382 186 h46" stroke="#C4C6C1" stroke-width="2" fill="none"/>
      <path d="M88 144 h42 v76 h-42 Z M150 126 h48 v94 h-48 Z" stroke="#C4C6C1" stroke-width="2" fill="none"/>
    </g>
  
  
  
    <style>
      text { font-family: "Microsoft YaHei", "Noto Sans SC", "PingFang SC", "Segoe UI", Arial, sans-serif; dominant-baseline: hanging; }
      .brand5 { font-size: 42px; font-weight: 900; fill: #050608; }
      .num5 { font-family: "Arial", "Microsoft YaHei", sans-serif; font-weight: 900; fill: #050608; }
      .h15 { font-size: 68px; font-weight: 900; fill: #050608; letter-spacing: 0; }
      .h25 { font-size: 58px; font-weight: 900; fill: #050608; letter-spacing: 0; }
      .sub5 { font-size: 31px; font-weight: 560; fill: #5F6670; }
      .body5 { font-size: 30px; font-weight: 700; fill: #050608; }
      .muted5 { font-size: 24px; font-weight: 560; fill: #5F6670; }
      .label5 { font-size: 29px; font-weight: 900; fill: #050608; }
      .small5 { font-size: 23px; font-weight: 760; fill: #5F6670; }
      .micro5 { font-size: 19px; font-weight: 760; fill: #5F6670; }
    </style>
    <text x="42" y="46" class="brand5">BitFun</text>
    <text x="1840" y="50" class="small5" text-anchor="end">11 / 11</text>
  
  
    <text x="96" y="142" class="small5" style="fill:#106BEF;font-weight:900">THANKS / Q&amp;A</text>
    <text x="96" y="238" class="h15" style="font-size:86px">谢谢</text>
    <text x="100" y="356" class="sub5">答疑互动：课程教学、开源协作与企业研发流程</text>
    <path d="M96 430 h144" stroke="#106BEF" stroke-width="9" stroke-linecap="round"/>
    <circle cx="270" cy="430" r="6" fill="#FF5A1F"/>
    <rect x="170" y="552" width="1580" height="318" rx="22" fill="#FFFFFF" stroke="#C4C6C1" stroke-width="2" filter="url(#paperShadow)"/>
    <text x="240" y="610" class="label5">留给讨论的三个问题</text>
    <text x="240" y="668" class="body5" style="font-size:28px">1. AI 能完成大部分编程作业后，软件工程课应该训练什么？</text>
    <text x="240" y="728" class="body5" style="font-size:28px">2. AI 让个人产能接近小团队后，质量责任如何重新设计？</text>
    <text x="240" y="788" class="body5" style="font-size:28px">3. 开源与大厂场景下，哪些决策仍必须由人负责？</text>
    <rect x="1070" y="238" width="490" height="190" rx="18" fill="#FBFAF7" stroke="#C4C6C1" stroke-width="2"/>
    <text x="1124" y="286" class="num5" style="font-size:54px;fill:#106BEF">Q&amp;A</text>
    <text x="1128" y="354" class="small5">答疑互动环节</text>
    <g transform="translate(1430 292) scale(1.34375)"><path d="M12 18 h40 q8 0 8 8 v18 q0 8 -8 8 H32 l-12 9 v-9 h-8 q-8 0 -8-8 V26 q0-8 8-8 Z" stroke="#106BEF" stroke-width="2.2325581395348837" stroke-linecap="round" stroke-linejoin="round" fill="none"/><circle cx="24" cy="35" r="2.4" fill="#106BEF"/><circle cx="34" cy="35" r="2.4" fill="#106BEF"/><circle cx="44" cy="35" r="2.4" fill="#106BEF"/></g>
    
    <rect x="320" y="908" width="1280" height="82" rx="10" fill="#FFFFFF" stroke="#C4C6C1" stroke-width="2"/>
    <path d="M402 930 v38" stroke="#106BEF" stroke-width="8" stroke-linecap="round"/>
    <text x="450" y="926" class="body5" style="font-size:32px">欢迎继续讨论：AI 编程、工程治理、课程教学与开发者角色变化。</text>
  
  
</svg>