<?xml version="1.0" encoding="UTF-8"?>
<svg xmlns="http://www.w3.org/2000/svg" width="1920" height="1080" viewBox="0 0 1920 1080">
  <defs>
    <pattern id="lightDots" width="34" height="34" patternUnits="userSpaceOnUse">
      <circle cx="3" cy="3" r="1.7" fill="#C4C6C1" opacity="0.55"/>
    </pattern>
    <filter id="paperShadow" x="-18%" y="-18%" width="136%" height="150%">
      <feDropShadow dx="0" dy="12" stdDeviation="14" flood-color="#4B5563" flood-opacity="0.13"/>
    </filter>
    <marker id="arrowBlue" markerWidth="12" markerHeight="12" refX="9" refY="6" orient="auto" markerUnits="strokeWidth">
      <path d="M2 2 L10 6 L2 10" fill="none" stroke="#106BEF" stroke-width="2"/>
    </marker>
    <marker id="arrowGray" markerWidth="12" markerHeight="12" refX="9" refY="6" orient="auto" markerUnits="strokeWidth">
      <path d="M2 2 L10 6 L2 10" fill="none" stroke="#A5A9AE" stroke-width="2"/>
    </marker>
  </defs>
  <rect width="1920" height="1080" fill="#FBFAF7"/>
  
    <rect x="1560" y="76" width="168" height="134" rx="12" fill="none" stroke="#D7D7D2" stroke-width="2"/>
    <path d="M1578 118 h42 m-42 28 h112 m-112 28 h88" stroke="#D7D7D2" stroke-width="2" stroke-dasharray="5 8" fill="none"/>
    <path d="M1848 56 h-88 q-28 0 -28 28 v126" stroke="#D7D7D2" stroke-width="2" fill="none"/>
    <path d="M1782 890 v-190 q0 -32 32 -32 h50" stroke="#D7D7D2" stroke-width="2" fill="none"/>
    <path d="M1650 820 h112 q30 0 30 -30 v-80" stroke="#D7D7D2" stroke-width="2" fill="none"/>
    <circle cx="1800" cy="708" r="7" fill="#FFFFFF" stroke="#C4C6C1" stroke-width="2"/>
    <circle cx="1762" cy="820" r="7" fill="#106BEF"/>
    <circle cx="1848" cy="622" r="6" fill="#FF5A1F"/>
    <rect x="1378" y="720" width="180" height="120" fill="url(#lightDots)" opacity="0.48"/>
    <rect x="152" y="318" width="128" height="96" fill="url(#lightDots)" opacity="0.42"/>
    <path d="M70 740 h120 v118 h250" stroke="#D7D7D2" stroke-width="2" fill="none"/>
    <path d="M50 510 h116 q26 0 26 26 v52" stroke="#D7D7D2" stroke-width="2" fill="none"/>
    <circle cx="150" cy="857" r="5" fill="#FF5A1F"/>
    
    <g opacity="0.26" transform="translate(1350 820) scale(0.72)">
      <path d="M0 120 L110 60 L220 120 L110 180 Z" fill="none" stroke="#C4C6C1" stroke-width="2"/>
      <path d="M110 60 V180 M0 120 V220 M220 120 V220 M0 220 H320" stroke="#C4C6C1" stroke-width="2" fill="none"/>
      <path d="M260 50 h70 v170 h-70 Z M280 80 h30 M280 116 h30 M280 152 h30" stroke="#C4C6C1" stroke-width="2" fill="none"/>
      <path d="M360 96 h90 v124 h-90 Z M382 122 h46 M382 154 h46 M382 186 h46" stroke="#C4C6C1" stroke-width="2" fill="none"/>
      <path d="M88 144 h42 v76 h-42 Z M150 126 h48 v94 h-48 Z" stroke="#C4C6C1" stroke-width="2" fill="none"/>
    </g>
  
  
  
    <style>
      text { font-family: "Microsoft YaHei", "Noto Sans SC", "PingFang SC", "Segoe UI", Arial, sans-serif; dominant-baseline: hanging; }
      .brand5 { font-size: 42px; font-weight: 900; fill: #050608; }
      .num5 { font-family: "Arial", "Microsoft YaHei", sans-serif; font-weight: 900; fill: #050608; }
      .h15 { font-size: 68px; font-weight: 900; fill: #050608; letter-spacing: 0; }
      .h25 { font-size: 58px; font-weight: 900; fill: #050608; letter-spacing: 0; }
      .sub5 { font-size: 31px; font-weight: 560; fill: #5F6670; }
      .body5 { font-size: 30px; font-weight: 700; fill: #050608; }
      .muted5 { font-size: 24px; font-weight: 560; fill: #5F6670; }
      .label5 { font-size: 29px; font-weight: 900; fill: #050608; }
      .small5 { font-size: 23px; font-weight: 760; fill: #5F6670; }
      .micro5 { font-size: 19px; font-weight: 760; fill: #5F6670; }
    </style>
    <text x="42" y="46" class="brand5">BitFun</text>
    <text x="1840" y="50" class="small5" text-anchor="end">01 / 11</text>
  
  
    <text x="96" y="154" class="small5" style="fill:#106BEF;font-weight:900">BitFun / AI 软件工程报告</text>
    <text x="96" y="238" class="h15" style="font-size:78px">AI 如何重新定义软件开发</text>
    <text x="100" y="350" class="sub5">以 BitFun 为引子，理解 AI 时代的软件工程新范式</text>
    <path d="M96 426 h160" stroke="#106BEF" stroke-width="9" stroke-linecap="round"/>
    <circle cx="284" cy="426" r="6" fill="#FF5A1F"/>
    <rect x="1120" y="222" width="520" height="354" rx="22" fill="#FFFFFF" stroke="#C4C6C1" stroke-width="2" filter="url(#paperShadow)"/>
    <path d="M1190 376 C1260 300 1360 304 1428 376 S1550 452 1600 372" stroke="#106BEF" stroke-width="6" fill="none"/>
    <path d="M1190 454 C1280 520 1388 520 1480 454 S1565 392 1610 438" stroke="#FF5A1F" stroke-width="6" fill="none"/>
    <g transform="translate(1224 280) scale(1.21875)"><path d="M18 18 L34 32 L18 46" stroke="#106BEF" stroke-width="2.4615384615384617" stroke-linecap="round" stroke-linejoin="round" fill="none"/><path d="M38 48 h16" stroke="#106BEF" stroke-width="2.4615384615384617" stroke-linecap="round" stroke-linejoin="round" fill="none"/></g>
    <g transform="translate(1394 402) scale(1.21875)"><rect x="12" y="10" width="40" height="44" rx="4" stroke="#FF5A1F" stroke-width="2.4615384615384617" stroke-linecap="round" stroke-linejoin="round" fill="none"/><path d="M22 32 l8 8 l14 -18" stroke="#FF5A1F" stroke-width="2.4615384615384617" stroke-linecap="round" stroke-linejoin="round" fill="none"/></g>
    <g transform="translate(1522 292) scale(1.21875)"><circle cx="32" cy="22" r="8" stroke="#106BEF" stroke-width="2.4615384615384617" stroke-linecap="round" stroke-linejoin="round" fill="none"/><circle cx="18" cy="30" r="6" stroke="#106BEF" stroke-width="2.4615384615384617" stroke-linecap="round" stroke-linejoin="round" fill="none"/><circle cx="46" cy="30" r="6" stroke="#106BEF" stroke-width="2.4615384615384617" stroke-linecap="round" stroke-linejoin="round" fill="none"/><path d="M14 50 q18 -16 36 0 M4 54 q14 -12 28 -5 M32 49 q14 -7 28 5" stroke="#106BEF" stroke-width="2.4615384615384617" stroke-linecap="round" stroke-linejoin="round" fill="none"/></g>
    <text x="96" y="610" class="body5">演讲者：颜仲南</text>
    <text x="96" y="664" class="muted5">2026.05</text>
    <rect x="96" y="760" width="920" height="112" rx="14" fill="#FBFAF7" stroke="#C4C6C1" stroke-width="2"/>
    <text x="134" y="792" class="label5">报告定位</text>
    <text x="134" y="836" class="small5">从代码补全走向 Agentic Coding，再看软件开发全生命周期如何被 AI 改写。</text>
  
</svg>