<?xml version="1.0" encoding="UTF-8"?>
<svg xmlns="http://www.w3.org/2000/svg" width="1920" height="1080" viewBox="0 0 1920 1080">
  <defs>
    <pattern id="lightDots" width="34" height="34" patternUnits="userSpaceOnUse">
      <circle cx="3" cy="3" r="1.7" fill="#C4C6C1" opacity="0.55"/>
    </pattern>
    <filter id="paperShadow" x="-18%" y="-18%" width="136%" height="150%">
      <feDropShadow dx="0" dy="12" stdDeviation="14" flood-color="#4B5563" flood-opacity="0.13"/>
    </filter>
    <marker id="arrowBlue" markerWidth="12" markerHeight="12" refX="9" refY="6" orient="auto" markerUnits="strokeWidth">
      <path d="M2 2 L10 6 L2 10" fill="none" stroke="#106BEF" stroke-width="2"/>
    </marker>
    <marker id="arrowGray" markerWidth="12" markerHeight="12" refX="9" refY="6" orient="auto" markerUnits="strokeWidth">
      <path d="M2 2 L10 6 L2 10" fill="none" stroke="#A5A9AE" stroke-width="2"/>
    </marker>
  </defs>
  <rect width="1920" height="1080" fill="#FBFAF7"/>
  
    <rect x="1560" y="76" width="168" height="134" rx="12" fill="none" stroke="#D7D7D2" stroke-width="2"/>
    <path d="M1578 118 h42 m-42 28 h112 m-112 28 h88" stroke="#D7D7D2" stroke-width="2" stroke-dasharray="5 8" fill="none"/>
    <path d="M1848 56 h-88 q-28 0 -28 28 v126" stroke="#D7D7D2" stroke-width="2" fill="none"/>
    <path d="M1782 890 v-190 q0 -32 32 -32 h50" stroke="#D7D7D2" stroke-width="2" fill="none"/>
    <path d="M1650 820 h112 q30 0 30 -30 v-80" stroke="#D7D7D2" stroke-width="2" fill="none"/>
    <circle cx="1800" cy="708" r="7" fill="#FFFFFF" stroke="#C4C6C1" stroke-width="2"/>
    <circle cx="1762" cy="820" r="7" fill="#106BEF"/>
    <circle cx="1848" cy="622" r="6" fill="#FF5A1F"/>
    <rect x="1378" y="720" width="180" height="120" fill="url(#lightDots)" opacity="0.48"/>
    <rect x="152" y="318" width="128" height="96" fill="url(#lightDots)" opacity="0.42"/>
    <path d="M70 740 h120 v118 h250" stroke="#D7D7D2" stroke-width="2" fill="none"/>
    <path d="M50 510 h116 q26 0 26 26 v52" stroke="#D7D7D2" stroke-width="2" fill="none"/>
    <circle cx="150" cy="857" r="5" fill="#FF5A1F"/>
    
    <g opacity="0.26" transform="translate(1350 820) scale(0.72)">
      <path d="M0 120 L110 60 L220 120 L110 180 Z" fill="none" stroke="#C4C6C1" stroke-width="2"/>
      <path d="M110 60 V180 M0 120 V220 M220 120 V220 M0 220 H320" stroke="#C4C6C1" stroke-width="2" fill="none"/>
      <path d="M260 50 h70 v170 h-70 Z M280 80 h30 M280 116 h30 M280 152 h30" stroke="#C4C6C1" stroke-width="2" fill="none"/>
      <path d="M360 96 h90 v124 h-90 Z M382 122 h46 M382 154 h46 M382 186 h46" stroke="#C4C6C1" stroke-width="2" fill="none"/>
      <path d="M88 144 h42 v76 h-42 Z M150 126 h48 v94 h-48 Z" stroke="#C4C6C1" stroke-width="2" fill="none"/>
    </g>
  
  
  
    <style>
      text { font-family: "Microsoft YaHei", "Noto Sans SC", "PingFang SC", "Segoe UI", Arial, sans-serif; dominant-baseline: hanging; }
      .brand5 { font-size: 42px; font-weight: 900; fill: #050608; }
      .num5 { font-family: "Arial", "Microsoft YaHei", sans-serif; font-weight: 900; fill: #050608; }
      .h15 { font-size: 68px; font-weight: 900; fill: #050608; letter-spacing: 0; }
      .h25 { font-size: 58px; font-weight: 900; fill: #050608; letter-spacing: 0; }
      .sub5 { font-size: 31px; font-weight: 560; fill: #5F6670; }
      .body5 { font-size: 30px; font-weight: 700; fill: #050608; }
      .muted5 { font-size: 24px; font-weight: 560; fill: #5F6670; }
      .label5 { font-size: 29px; font-weight: 900; fill: #050608; }
      .small5 { font-size: 23px; font-weight: 760; fill: #5F6670; }
      .micro5 { font-size: 19px; font-weight: 760; fill: #5F6670; }
    </style>
    <text x="42" y="46" class="brand5">BitFun</text>
    <text x="1840" y="50" class="small5" text-anchor="end">09 / 11</text>
  
  
    
    <text x="96" y="132" class="small5" style="fill:#106BEF;font-weight:900">06 / BitFun 缩影</text>
    <text x="96" y="188" class="h15" style="font-size:70px">BitFun 的价值：四个问题</text>
    <text x="100" y="282" class="sub5">不是项目细节，而是把 AI 开发组织成闭环。</text>
    <path d="M96 356 h112" stroke="#106BEF" stroke-width="8" stroke-linecap="round"/>
    <circle cx="230" cy="356" r="5.5" fill="#FF5A1F"/>
  
    <circle cx="960" cy="610" r="212" fill="#FFFFFF" stroke="#C4C6C1" stroke-width="3" filter="url(#paperShadow)"/>
    <path d="M960 398 A212 212 0 0 1 1172 610" stroke="#106BEF" stroke-width="8" fill="none" marker-end="url(#arrowBlue)"/>
    <path d="M1172 610 A212 212 0 0 1 960 822" stroke="#106BEF" stroke-width="8" fill="none"/>
    <path d="M960 822 A212 212 0 0 1 748 610" stroke="#FF5A1F" stroke-width="8" fill="none"/>
    <path d="M748 610 A212 212 0 0 1 960 398" stroke="#FF5A1F" stroke-width="8" fill="none"/>
    <text x="960" y="550" class="body5" text-anchor="middle" style="font-size:44px">开发过程</text>
    <text x="960" y="620" class="body5" text-anchor="middle" style="font-size:44px">产品化</text>
    
    <rect x="225" y="430" width="430" height="122" rx="14" fill="#FFFFFF" stroke="#C4C6C1" stroke-width="2" filter="url(#paperShadow)"/>
    <g transform="translate(255 462) scale(0.90625)"><path d="M48 18 A22 22 0 0 0 14 24 M14 24 h12 M14 24 v-12 M16 46 A22 22 0 0 0 50 40 M50 40 H38 M50 40 v12" stroke="#FF5A1F" stroke-width="3.310344827586207" stroke-linecap="round" stroke-linejoin="round" fill="none"/><path d="M24 34 l7 7 l13 -17" stroke="#FF5A1F" stroke-width="3.310344827586207" stroke-linecap="round" stroke-linejoin="round" fill="none"/></g>
    
    <text x="343" y="458" class="label5" style="font-size:29px">自迭代</text>
    <text x="343" y="498" class="small5" style="font-size:23px">失败沉淀成下一版工作流</text>
  
    
    <rect x="680" y="318" width="430" height="122" rx="14" fill="#FFFFFF" stroke="#C4C6C1" stroke-width="2" filter="url(#paperShadow)"/>
    <g transform="translate(710 350) scale(0.90625)"><path d="M18 8 h22 l10 10 v38 H18 Z M40 8 v12 h12 M26 32 h20 M26 42 h18" stroke="#106BEF" stroke-width="3.310344827586207" stroke-linecap="round" stroke-linejoin="round" fill="none"/></g>
    
    <text x="798" y="346" class="label5" style="font-size:29px">计划</text>
    <text x="798" y="386" class="small5" style="font-size:23px">先探索和计划，再实现</text>
  
    
    <rect x="1260" y="520" width="430" height="122" rx="14" fill="#FFFFFF" stroke="#C4C6C1" stroke-width="2" filter="url(#paperShadow)"/>
    <g transform="translate(1290 552) scale(0.90625)"><rect x="12" y="10" width="40" height="44" rx="4" stroke="#106BEF" stroke-width="3.310344827586207" stroke-linecap="round" stroke-linejoin="round" fill="none"/><path d="M22 32 l8 8 l14 -18" stroke="#106BEF" stroke-width="3.310344827586207" stroke-linecap="round" stroke-linejoin="round" fill="none"/></g>
    
    <text x="1378" y="548" class="label5" style="font-size:29px">证据</text>
    <text x="1378" y="588" class="small5" style="font-size:23px">调试先取证，不凭自信</text>
  
    
    <rect x="690" y="790" width="430" height="122" rx="14" fill="#FFFFFF" stroke="#C4C6C1" stroke-width="2" filter="url(#paperShadow)"/>
    <g transform="translate(720 822) scale(0.90625)"><circle cx="32" cy="22" r="8" stroke="#FF5A1F" stroke-width="3.310344827586207" stroke-linecap="round" stroke-linejoin="round" fill="none"/><circle cx="18" cy="30" r="6" stroke="#FF5A1F" stroke-width="3.310344827586207" stroke-linecap="round" stroke-linejoin="round" fill="none"/><circle cx="46" cy="30" r="6" stroke="#FF5A1F" stroke-width="3.310344827586207" stroke-linecap="round" stroke-linejoin="round" fill="none"/><path d="M14 50 q18 -16 36 0 M4 54 q14 -12 28 -5 M32 49 q14 -7 28 5" stroke="#FF5A1F" stroke-width="3.310344827586207" stroke-linecap="round" stroke-linejoin="round" fill="none"/></g>
    
    <text x="808" y="818" class="label5" style="font-size:29px">评审</text>
    <text x="808" y="858" class="small5" style="font-size:23px">执行者、审查者、仲裁者分离</text>
  
    
    <rect x="310" y="940" width="1300" height="82" rx="10" fill="#FFFFFF" stroke="#C4C6C1" stroke-width="2"/>
    <path d="M392 961 v40" stroke="#106BEF" stroke-width="8" stroke-linecap="round"/>
    <text x="440" y="962" class="body5" style="font-size:31px">AI 工具的未来形态不是更会聊天，而是组织可治理的开发闭环。</text>
  
  
</svg>