<?xml version="1.0" encoding="UTF-8"?>
<svg xmlns="http://www.w3.org/2000/svg" width="1920" height="1080" viewBox="0 0 1920 1080">
  <defs>
    <pattern id="lightDots" width="34" height="34" patternUnits="userSpaceOnUse">
      <circle cx="3" cy="3" r="1.7" fill="#C4C6C1" opacity="0.55"/>
    </pattern>
    <filter id="paperShadow" x="-18%" y="-18%" width="136%" height="150%">
      <feDropShadow dx="0" dy="12" stdDeviation="14" flood-color="#4B5563" flood-opacity="0.13"/>
    </filter>
    <marker id="arrowBlue" markerWidth="12" markerHeight="12" refX="9" refY="6" orient="auto" markerUnits="strokeWidth">
      <path d="M2 2 L10 6 L2 10" fill="none" stroke="#106BEF" stroke-width="2"/>
    </marker>
    <marker id="arrowGray" markerWidth="12" markerHeight="12" refX="9" refY="6" orient="auto" markerUnits="strokeWidth">
      <path d="M2 2 L10 6 L2 10" fill="none" stroke="#A5A9AE" stroke-width="2"/>
    </marker>
  </defs>
  <rect width="1920" height="1080" fill="#FBFAF7"/>
  
    <rect x="1560" y="76" width="168" height="134" rx="12" fill="none" stroke="#D7D7D2" stroke-width="2"/>
    <path d="M1578 118 h42 m-42 28 h112 m-112 28 h88" stroke="#D7D7D2" stroke-width="2" stroke-dasharray="5 8" fill="none"/>
    <path d="M1848 56 h-88 q-28 0 -28 28 v126" stroke="#D7D7D2" stroke-width="2" fill="none"/>
    <path d="M1782 890 v-190 q0 -32 32 -32 h50" stroke="#D7D7D2" stroke-width="2" fill="none"/>
    <path d="M1650 820 h112 q30 0 30 -30 v-80" stroke="#D7D7D2" stroke-width="2" fill="none"/>
    <circle cx="1800" cy="708" r="7" fill="#FFFFFF" stroke="#C4C6C1" stroke-width="2"/>
    <circle cx="1762" cy="820" r="7" fill="#106BEF"/>
    <circle cx="1848" cy="622" r="6" fill="#FF5A1F"/>
    <rect x="1378" y="720" width="180" height="120" fill="url(#lightDots)" opacity="0.48"/>
    <rect x="152" y="318" width="128" height="96" fill="url(#lightDots)" opacity="0.42"/>
    <path d="M70 740 h120 v118 h250" stroke="#D7D7D2" stroke-width="2" fill="none"/>
    <path d="M50 510 h116 q26 0 26 26 v52" stroke="#D7D7D2" stroke-width="2" fill="none"/>
    <circle cx="150" cy="857" r="5" fill="#FF5A1F"/>
    
    <g opacity="0.26" transform="translate(1350 820) scale(0.72)">
      <path d="M0 120 L110 60 L220 120 L110 180 Z" fill="none" stroke="#C4C6C1" stroke-width="2"/>
      <path d="M110 60 V180 M0 120 V220 M220 120 V220 M0 220 H320" stroke="#C4C6C1" stroke-width="2" fill="none"/>
      <path d="M260 50 h70 v170 h-70 Z M280 80 h30 M280 116 h30 M280 152 h30" stroke="#C4C6C1" stroke-width="2" fill="none"/>
      <path d="M360 96 h90 v124 h-90 Z M382 122 h46 M382 154 h46 M382 186 h46" stroke="#C4C6C1" stroke-width="2" fill="none"/>
      <path d="M88 144 h42 v76 h-42 Z M150 126 h48 v94 h-48 Z" stroke="#C4C6C1" stroke-width="2" fill="none"/>
    </g>
  
  
  
    <style>
      text { font-family: "Microsoft YaHei", "Noto Sans SC", "PingFang SC", "Segoe UI", Arial, sans-serif; dominant-baseline: hanging; }
      .brand5 { font-size: 42px; font-weight: 900; fill: #050608; }
      .num5 { font-family: "Arial", "Microsoft YaHei", sans-serif; font-weight: 900; fill: #050608; }
      .h15 { font-size: 68px; font-weight: 900; fill: #050608; letter-spacing: 0; }
      .h25 { font-size: 58px; font-weight: 900; fill: #050608; letter-spacing: 0; }
      .sub5 { font-size: 31px; font-weight: 560; fill: #5F6670; }
      .body5 { font-size: 30px; font-weight: 700; fill: #050608; }
      .muted5 { font-size: 24px; font-weight: 560; fill: #5F6670; }
      .label5 { font-size: 29px; font-weight: 900; fill: #050608; }
      .small5 { font-size: 23px; font-weight: 760; fill: #5F6670; }
      .micro5 { font-size: 19px; font-weight: 760; fill: #5F6670; }
    </style>
    <text x="42" y="46" class="brand5">BitFun</text>
    <text x="1840" y="50" class="small5" text-anchor="end">07 / 11</text>
  
  
    
    <text x="96" y="132" class="small5" style="fill:#106BEF;font-weight:900">04 / 质量责任</text>
    <text x="96" y="188" class="h15" style="font-size:70px">高质量不是一个标准</text>
    <text x="100" y="282" class="sub5">开源强调公共责任，大厂强调复杂组织交付责任。</text>
    <path d="M96 356 h112" stroke="#106BEF" stroke-width="8" stroke-linecap="round"/>
    <circle cx="230" cy="356" r="5.5" fill="#FF5A1F"/>
  
    <circle cx="960" cy="610" r="150" fill="#FFFFFF" stroke="#106BEF" stroke-width="5" filter="url(#paperShadow)"/>
    <text x="960" y="548" class="body5" text-anchor="middle" style="font-size:36px">可验证责任</text>
    <text x="960" y="606" class="muted5" text-anchor="middle">谁负责</text>
    <text x="960" y="652" class="muted5" text-anchor="middle">用什么证据确认</text>
    <path d="M308 612 C505 465 720 480 830 590" stroke="#106BEF" stroke-width="5" fill="none" marker-end="url(#arrowBlue)"/>
    <path d="M1612 612 C1415 465 1200 480 1090 590" stroke="#FF5A1F" stroke-width="5" fill="none"/>
    
    <rect x="190" y="472" width="430" height="122" rx="14" fill="#FFFFFF" stroke="#C4C6C1" stroke-width="2" filter="url(#paperShadow)"/>
    <g transform="translate(220 504) scale(0.90625)"><path d="M18 8 h22 l10 10 v38 H18 Z M40 8 v12 h12 M26 32 h20 M26 42 h18" stroke="#106BEF" stroke-width="3.310344827586207" stroke-linecap="round" stroke-linejoin="round" fill="none"/></g>
    
    <text x="308" y="500" class="label5" style="font-size:29px">开源高质量协作</text>
    <text x="308" y="540" class="small5" style="font-size:23px">开发者对提交负责</text>
  
    
    <rect x="190" y="646" width="430" height="122" rx="14" fill="#FFFFFF" stroke="#C4C6C1" stroke-width="2" filter="url(#paperShadow)"/>
    <g transform="translate(220 678) scale(0.90625)"><circle cx="32" cy="22" r="8" stroke="#106BEF" stroke-width="3.310344827586207" stroke-linecap="round" stroke-linejoin="round" fill="none"/><circle cx="18" cy="30" r="6" stroke="#106BEF" stroke-width="3.310344827586207" stroke-linecap="round" stroke-linejoin="round" fill="none"/><circle cx="46" cy="30" r="6" stroke="#106BEF" stroke-width="3.310344827586207" stroke-linecap="round" stroke-linejoin="round" fill="none"/><path d="M14 50 q18 -16 36 0 M4 54 q14 -12 28 -5 M32 49 q14 -7 28 5" stroke="#106BEF" stroke-width="3.310344827586207" stroke-linecap="round" stroke-linejoin="round" fill="none"/></g>
    
    <text x="308" y="674" class="label5" style="font-size:29px">代码归属</text>
    <text x="308" y="714" class="small5" style="font-size:23px">负责人 / 必过检查</text>
  
    
    <rect x="1300" y="472" width="430" height="122" rx="14" fill="#FFFFFF" stroke="#C4C6C1" stroke-width="2" filter="url(#paperShadow)"/>
    <g transform="translate(1330 504) scale(0.90625)"><rect x="10" y="10" width="18" height="18" stroke="#FF5A1F" stroke-width="3.310344827586207" stroke-linecap="round" stroke-linejoin="round" fill="none"/><rect x="36" y="10" width="18" height="18" stroke="#FF5A1F" stroke-width="3.310344827586207" stroke-linecap="round" stroke-linejoin="round" fill="none"/><rect x="10" y="36" width="18" height="18" stroke="#FF5A1F" stroke-width="3.310344827586207" stroke-linecap="round" stroke-linejoin="round" fill="none"/><path d="M41 36 l14 9 l-14 9 l-14 -9 Z" stroke="#FF5A1F" stroke-width="3.310344827586207" stroke-linecap="round" stroke-linejoin="round" fill="none"/></g>
    
    <text x="1418" y="500" class="label5" style="font-size:29px">大厂复杂交付</text>
    <text x="1418" y="540" class="small5" style="font-size:23px">组织对系统连续性负责</text>
  
    
    <rect x="1300" y="646" width="430" height="122" rx="14" fill="#FFFFFF" stroke="#C4C6C1" stroke-width="2" filter="url(#paperShadow)"/>
    <g transform="translate(1330 678) scale(0.90625)"><path d="M48 18 A22 22 0 0 0 14 24 M14 24 h12 M14 24 v-12 M16 46 A22 22 0 0 0 50 40 M50 40 H38 M50 40 v12" stroke="#FF5A1F" stroke-width="3.310344827586207" stroke-linecap="round" stroke-linejoin="round" fill="none"/><path d="M24 34 l7 7 l13 -17" stroke="#FF5A1F" stroke-width="3.310344827586207" stroke-linecap="round" stroke-linejoin="round" fill="none"/></g>
    
    <text x="1418" y="674" class="label5" style="font-size:29px">服务目标 / 回滚</text>
    <text x="1418" y="714" class="small5" style="font-size:23px">灰度 / 追踪 / 预算</text>
  
    <text x="440" y="830" class="body5">通过单测只是起点，离“可合并、可发布、可长期维护”仍有距离。</text>
    
    <rect x="460" y="936" width="1000" height="82" rx="10" fill="#FFFFFF" stroke="#C4C6C1" stroke-width="2"/>
    <path d="M542 957 v40" stroke="#106BEF" stroke-width="8" stroke-linecap="round"/>
    <text x="590" y="958" class="body5" style="font-size:31px">关键不是多跑测试，而是责任链和证据链。</text>
  
  
</svg>